<svg width="3033" height="1194" viewBox="0 0 3033 1194" fill="none" xmlns="http://www.w3.org/2000/svg">
<g filter="url(#filter0_d_3673_2)">
<path opacity="0.7" fill-rule="evenodd" clip-rule="evenodd" d="M458 107H1466H1566.5H2574.5V87H1566.5H1466H458V107Z" fill="white"/>
<circle cx="467.5" cy="100" r="55" fill="black" stroke="white" stroke-width="10"/>
<rect x="50" y="200" width="835" height="944" rx="28" fill="white"/>
<path opacity="0.7" d="M306.924 283.449L279.566 270.733V267.222L306.952 253.571V259.405L286.986 268.836L306.924 277.644V283.449ZM324.114 289V272.546L309.756 247.511H318.082L327.966 265.466L337.906 247.511H346.119L331.817 272.404V289H324.114ZM349.829 289V247.511H374.978L374.666 253.6H357.504V264.305H373.816V270.394H357.504V282.883H375.289L375.034 289H349.829ZM377.895 289L393.159 247.482H401.514L416.552 289H408.679L404.572 277.275H390.044L385.909 289H377.895ZM391.97 271.555H402.618C399.22 260.661 397.473 255.035 397.379 254.676L391.97 271.555ZM420.488 289V247.397H435.866C437.962 247.397 439.774 247.492 441.304 247.681C442.852 247.869 444.315 248.219 445.693 248.729C447.09 249.219 448.214 249.89 449.063 250.739C449.932 251.589 450.612 252.703 451.103 254.081C451.612 255.44 451.867 257.055 451.867 258.924C451.867 264.437 449.366 268.062 444.362 269.799C445.382 270.951 446.647 273.084 448.157 276.199L454.331 289H445.948L441.105 278.153C439.274 274.264 438.141 271.961 437.707 271.243C437.386 271.224 436.319 271.215 434.507 271.215L428.078 271.158V289H420.488ZM436.546 265.664C439.491 265.664 441.606 265.145 442.89 264.106C444.174 263.049 444.815 261.359 444.815 259.037C444.815 256.998 444.164 255.497 442.861 254.534C441.559 253.571 439.567 253.09 436.886 253.09H428.078V265.636C428.361 265.636 429.768 265.645 432.298 265.664C434.828 265.664 436.244 265.664 436.546 265.664ZM457.163 294.353L474.778 246.831H480.952L463.195 294.353H457.163ZM494.772 282.854H500.267C505.006 282.854 508.612 281.618 511.085 279.145C513.558 276.652 514.795 273.027 514.795 268.27C514.795 263.172 513.521 259.471 510.972 257.168C508.423 254.846 504.581 253.685 499.445 253.685H494.772V282.854ZM487.098 289V247.511H499.105C502.73 247.511 505.978 247.926 508.848 248.757C511.717 249.588 514.181 250.843 516.239 252.523C518.316 254.185 519.902 256.337 520.997 258.98C522.111 261.605 522.668 264.645 522.668 268.1C522.668 274.802 520.648 279.966 516.607 283.591C512.567 287.197 506.969 289 499.813 289H487.098ZM523.914 289L539.179 247.482H547.533L562.571 289H554.698L550.592 277.275H536.063L531.929 289H523.914ZM537.989 271.555H548.638C545.239 260.661 543.493 255.035 543.398 254.676L537.989 271.555ZM572.455 289V253.656H560.362V247.511H592.194V253.656H580.158V289H572.455ZM596.669 289V247.511H621.817L621.506 253.6H604.344V264.305H620.656V270.394H604.344V282.883H622.129L621.874 289H596.669ZM628.189 283.421V277.587L648.127 268.836L628.189 259.349V253.515L655.575 267.222V270.733L628.189 283.421Z" fill="black"/>
<path d="M290.328 408.449L262.971 395.733V392.222L290.356 378.571V384.405L270.391 393.836L290.328 402.644V408.449ZM306.074 414V378.656H293.981V372.511H325.813V378.656H313.777V414H306.074ZM330.883 414V372.511H338.558V414H330.883ZM355.748 414V378.656H343.655V372.511H375.487V378.656H363.451V414H355.748ZM379.962 414V372.511H387.637V407.883H404.997L404.771 414H379.962ZM410.321 414V372.511H435.47L435.158 378.6H417.996V389.305H434.309V395.394H417.996V407.883H435.781L435.526 414H410.321ZM441.842 408.421V402.587L461.779 393.836L441.842 384.349V378.515L469.228 392.222V395.733L441.842 408.421ZM490.1 414L489.93 407.883L503.042 393.043C504.666 391.306 505.846 389.711 506.582 388.257C507.337 386.784 507.715 385.236 507.715 383.612C507.715 381.819 507.13 380.393 505.959 379.336C504.788 378.26 503.25 377.722 501.343 377.722C499.587 377.722 497.85 378.052 496.132 378.713C494.433 379.355 493.035 380.167 491.94 381.148L489.816 375.541C492.648 373.049 496.632 371.803 501.768 371.803C505.846 371.803 509.121 372.832 511.595 374.89C514.087 376.929 515.333 379.817 515.333 383.556C515.333 386.199 514.625 388.719 513.209 391.117C511.812 393.515 509.896 395.979 507.46 398.509L498.114 408.421H514.852L514.342 414H490.1ZM522.017 414V372.511H529.691V407.883H547.052L546.825 414H522.017ZM552.574 414V372.511H560.249V414H552.574ZM569.425 414V372.511H577.581C579.054 374.814 582.046 379.459 586.559 386.444C591.071 393.43 593.818 397.678 594.8 399.188C595.083 399.623 595.564 400.359 596.244 401.397C596.943 402.417 597.434 403.144 597.717 403.578C597.585 397.102 597.519 393.742 597.519 393.496V372.511H604.514V414H596.244L577.524 384.83L576.165 382.593C576.316 387.577 576.392 391.079 576.392 393.1V414H569.425ZM613.435 414V372.511H638.583L638.271 378.6H621.109V389.305H637.422V395.394H621.109V407.883H638.895L638.64 414H613.435ZM657.699 414.566C652.696 414.566 648.212 413.415 644.247 411.111L646.116 405.022C647.891 406.004 649.817 406.797 651.894 407.401C653.989 408.006 656.028 408.308 658.011 408.308C660.446 408.308 662.287 407.788 663.533 406.75C664.779 405.693 665.402 404.182 665.402 402.219C665.402 399.613 663.665 397.81 660.191 396.81C659.946 396.734 659.257 396.536 658.124 396.215C656.991 395.875 655.924 395.554 654.924 395.252C653.942 394.931 653.234 394.686 652.8 394.516C647.23 392.552 644.445 388.889 644.445 383.527C644.445 379.77 645.776 376.872 648.438 374.833C651.119 372.794 654.669 371.774 659.087 371.774C664.09 371.774 668.404 372.803 672.029 374.861L669.707 380.469C666.007 378.807 662.57 377.977 659.398 377.977C657.114 377.977 655.386 378.382 654.216 379.194C653.064 379.987 652.451 381.318 652.375 383.188C652.375 385.491 653.517 386.992 655.802 387.69C656.255 387.86 657.369 388.229 659.144 388.795C660.918 389.361 662.07 389.729 662.599 389.899C666.394 391.146 669.103 392.694 670.727 394.544C672.369 396.394 673.19 398.971 673.19 402.275C673.19 406.221 671.793 409.261 668.999 411.395C666.205 413.509 662.438 414.566 657.699 414.566Z" fill="black"/>
<path d="M124.223 496.148L105.512 487.184V485.289L124.262 475.66V478.746L109.125 486.148L124.223 493.062V496.148ZM137.621 496.637C139.77 496.637 141.365 495.947 142.406 494.566C143.461 493.186 143.988 491.214 143.988 488.648C143.988 485.758 143.48 483.583 142.465 482.125C141.462 480.654 139.835 479.918 137.582 479.918C136.579 479.918 135.694 480.133 134.926 480.562C134.158 480.992 133.539 481.591 133.07 482.359C132.602 483.128 132.243 484.013 131.996 485.016C131.762 486.005 131.645 487.092 131.645 488.277C131.645 489.944 131.846 491.389 132.25 492.613C132.667 493.837 133.331 494.814 134.242 495.543C135.154 496.272 136.28 496.637 137.621 496.637ZM144.047 495.895C143.344 496.975 142.406 497.835 141.234 498.473C140.062 499.111 138.754 499.43 137.309 499.43C134.483 499.43 132.27 498.427 130.668 496.422C129.066 494.404 128.266 491.663 128.266 488.199C128.266 484.892 129.079 482.223 130.707 480.191C132.335 478.147 134.516 477.125 137.25 477.125C138.669 477.125 140.004 477.438 141.254 478.062C142.517 478.674 143.461 479.501 144.086 480.543L144.027 478.688V469.254L147.25 469.059V499H144.477L144.047 495.895ZM165.277 481.539C164.327 480.393 163.018 479.82 161.352 479.82C159.685 479.82 158.324 480.413 157.27 481.598C156.215 482.77 155.596 484.378 155.414 486.422H166.723C166.723 484.299 166.241 482.672 165.277 481.539ZM161.996 499.449C158.884 499.449 156.43 498.46 154.633 496.48C152.849 494.501 151.957 491.793 151.957 488.355C151.957 485.035 152.823 482.346 154.555 480.289C156.286 478.219 158.565 477.164 161.391 477.125C164.047 477.125 166.15 478.036 167.699 479.859C169.262 481.669 170.043 484.091 170.043 487.125C170.043 487.281 170.036 487.568 170.023 487.984C170.023 488.401 170.023 488.701 170.023 488.883H155.316C155.355 491.318 155.98 493.219 157.191 494.586C158.415 495.94 160.056 496.617 162.113 496.617C164.379 496.617 166.651 496.018 168.93 494.82L169.438 497.457C167.263 498.785 164.783 499.449 161.996 499.449ZM180.961 499.449C179.503 499.449 178.155 499.293 176.918 498.98C175.694 498.668 174.698 498.264 173.93 497.77L174.34 495.016C176.514 496.174 178.65 496.754 180.746 496.754C183.923 496.754 185.557 495.634 185.648 493.395C185.648 492.444 185.31 491.695 184.633 491.148C183.956 490.602 182.628 489.99 180.648 489.312L179.027 488.746C177.152 488.121 175.811 487.346 175.004 486.422C174.21 485.497 173.806 484.345 173.793 482.965C173.793 481.285 174.464 479.892 175.805 478.785C177.159 477.678 179.008 477.125 181.352 477.125C183.773 477.125 185.98 477.594 187.973 478.531L187.016 481.031C184.997 480.198 183.109 479.781 181.352 479.781C179.984 479.781 178.91 480.055 178.129 480.602C177.361 481.135 176.977 481.891 176.977 482.867C176.977 483.701 177.257 484.339 177.816 484.781C178.376 485.224 179.496 485.732 181.176 486.305C181.605 486.461 182.146 486.643 182.797 486.852C184.958 487.555 186.488 488.388 187.387 489.352C188.285 490.302 188.734 491.591 188.734 493.219C188.708 495.198 187.999 496.734 186.605 497.828C185.212 498.909 183.331 499.449 180.961 499.449ZM202.27 499.449C199.118 499.449 196.651 498.427 194.867 496.383C193.096 494.339 192.211 491.663 192.211 488.355C192.224 485.022 193.129 482.32 194.926 480.25C196.736 478.167 199.21 477.125 202.348 477.125C203.454 477.125 204.522 477.262 205.551 477.535C206.592 477.809 207.413 478.167 208.012 478.609L207.113 481.148C205.59 480.328 203.982 479.918 202.289 479.918C200.219 479.918 198.578 480.673 197.367 482.184C196.169 483.694 195.57 485.758 195.57 488.375C195.57 490.927 196.163 492.952 197.348 494.449C198.546 495.934 200.199 496.676 202.309 496.676C203.988 496.676 205.707 496.22 207.465 495.309L207.875 497.906C206.456 498.935 204.587 499.449 202.27 499.449ZM221.723 477.379C222.309 477.379 222.842 477.418 223.324 477.496L223.207 480.504C222.608 480.4 222.087 480.348 221.645 480.348C219.822 480.348 218.337 480.986 217.191 482.262C216.059 483.525 215.492 485.094 215.492 486.969V499H212.23C212.217 485.849 212.211 478.707 212.211 477.574H214.926L215.238 481.422C215.98 480.211 216.924 479.234 218.07 478.492C219.216 477.75 220.434 477.379 221.723 477.379ZM230.531 477.574V499H227.25V477.574H230.531ZM230.531 469.781V473.648H227.25V469.781H230.531ZM236.684 508.297V477.574H239.555L239.867 480.484C241.742 478.245 243.995 477.125 246.625 477.125C248.578 477.125 250.232 477.613 251.586 478.59C252.94 479.566 253.936 480.888 254.574 482.555C255.225 484.221 255.551 486.168 255.551 488.395C255.551 490.53 255.199 492.431 254.496 494.098C253.793 495.751 252.758 497.06 251.391 498.023C250.036 498.974 248.448 499.449 246.625 499.449C245.245 499.449 243.949 499.143 242.738 498.531C241.527 497.906 240.557 497.086 239.828 496.07C239.906 497.477 239.945 498.844 239.945 500.172V508.082L236.684 508.297ZM246.176 496.695C247.165 496.695 248.051 496.474 248.832 496.031C249.613 495.576 250.245 494.957 250.727 494.176C251.208 493.395 251.573 492.509 251.82 491.52C252.068 490.517 252.191 489.436 252.191 488.277C252.191 485.829 251.677 483.824 250.648 482.262C249.62 480.686 248.116 479.898 246.137 479.898C241.996 479.898 239.926 482.574 239.926 487.926C239.926 490.829 240.408 493.017 241.371 494.488C242.348 495.96 243.949 496.695 246.176 496.695ZM266.996 499.391C264.887 499.391 263.389 498.876 262.504 497.848C261.618 496.819 261.15 495.159 261.098 492.867V479.996H257.914L258.051 477.848L261.078 477.574L262.191 472.672L264.34 472.594V477.574H270.297V479.996H264.34V492.281C264.34 493.909 264.587 495.055 265.082 495.719C265.577 496.383 266.423 496.715 267.621 496.715C268.051 496.715 268.982 496.611 270.414 496.402L270.551 498.98C269.001 499.254 267.816 499.391 266.996 499.391ZM277.875 477.574V499H274.594V477.574H277.875ZM277.875 469.781V473.648H274.594V469.781H277.875ZM286.41 488.336C286.41 490.875 286.97 492.913 288.09 494.449C289.223 495.973 290.87 496.734 293.031 496.734C295.167 496.734 296.775 495.973 297.855 494.449C298.949 492.926 299.496 490.875 299.496 488.297C299.496 485.68 298.956 483.622 297.875 482.125C296.807 480.615 295.173 479.859 292.973 479.859C290.837 479.859 289.21 480.628 288.09 482.164C286.97 483.701 286.41 485.758 286.41 488.336ZM302.875 488.277C302.875 491.598 301.99 494.293 300.219 496.363C298.448 498.421 296 499.449 292.875 499.449C289.867 499.449 287.471 498.408 285.688 496.324C283.917 494.241 283.031 491.565 283.031 488.297C283.031 484.964 283.923 482.268 285.707 480.211C287.491 478.154 289.939 477.125 293.051 477.125C296.111 477.125 298.513 478.16 300.258 480.23C302.003 482.288 302.875 484.97 302.875 488.277ZM307.504 499V477.574H310.238L310.648 480.641C311.495 479.586 312.549 478.74 313.812 478.102C315.089 477.451 316.462 477.125 317.934 477.125C320.408 477.125 322.237 477.822 323.422 479.215C324.607 480.595 325.199 482.724 325.199 485.602V499H321.938C321.938 490.406 321.931 485.803 321.918 485.191C321.866 483.368 321.495 482.034 320.805 481.188C320.128 480.341 318.988 479.918 317.387 479.918C315.707 479.918 314.307 480.322 313.188 481.129C312.068 481.936 311.339 482.984 311 484.273C310.87 485.146 310.805 486.148 310.805 487.281V499H307.504ZM330.082 492.926L345.199 486.148L330.121 478.609V475.562L348.832 485.309V487.203L330.082 496.031V492.926Z" fill="black"/>
<path d="M111.113 588.391C107.663 588.391 104.57 587.596 101.836 586.008L103.125 581.809C104.349 582.486 105.677 583.033 107.109 583.449C108.555 583.866 109.961 584.074 111.328 584.074C113.008 584.074 114.277 583.716 115.137 583C115.996 582.271 116.426 581.229 116.426 579.875C116.426 578.078 115.228 576.835 112.832 576.145C112.663 576.092 112.188 575.956 111.406 575.734C110.625 575.5 109.889 575.279 109.199 575.07C108.522 574.849 108.034 574.68 107.734 574.562C103.893 573.208 101.973 570.682 101.973 566.984C101.973 564.393 102.891 562.395 104.727 560.988C106.576 559.582 109.023 558.879 112.07 558.879C115.521 558.879 118.496 559.589 120.996 561.008L119.395 564.875C116.842 563.729 114.473 563.156 112.285 563.156C110.71 563.156 109.518 563.436 108.711 563.996C107.917 564.543 107.493 565.461 107.441 566.75C107.441 568.339 108.229 569.374 109.805 569.855C110.117 569.973 110.885 570.227 112.109 570.617C113.333 571.008 114.128 571.262 114.492 571.379C117.109 572.238 118.978 573.306 120.098 574.582C121.23 575.858 121.797 577.635 121.797 579.914C121.797 582.635 120.833 584.732 118.906 586.203C116.979 587.661 114.382 588.391 111.113 588.391ZM125.84 588V558.625L130.957 558.293V571.477L130.84 575.812C130.853 575.799 130.983 575.669 131.23 575.422C131.491 575.174 131.634 575.038 131.66 575.012C132.376 574.165 133.151 573.293 133.984 572.395C134.831 571.496 135.892 570.396 137.168 569.094C138.457 567.792 139.297 566.939 139.688 566.535H145.781L136.953 575.676L146.348 588H140.156L133.086 578.254L130.957 579.934V588H125.84ZM148.887 588V566.535H154.004V588H148.887ZM148.887 563.41V559.035H154.023V563.41H148.887ZM166.875 588.293C165.404 588.293 164.18 588.124 163.203 587.785C162.24 587.434 161.478 586.88 160.918 586.125C160.358 585.37 159.967 584.471 159.746 583.43C159.525 582.388 159.414 581.092 159.414 579.543V558.625L164.531 558.293V579.445C164.531 581.372 164.759 582.681 165.215 583.371C165.671 584.048 166.556 584.387 167.871 584.387C168.522 584.387 169.349 584.315 170.352 584.172L170.488 587.824C170.475 587.824 170.312 587.857 170 587.922C169.701 587.987 169.408 588.039 169.121 588.078C168.848 588.13 168.496 588.176 168.066 588.215C167.637 588.267 167.24 588.293 166.875 588.293ZM180.547 588.293C179.076 588.293 177.852 588.124 176.875 587.785C175.911 587.434 175.15 586.88 174.59 586.125C174.03 585.37 173.639 584.471 173.418 583.43C173.197 582.388 173.086 581.092 173.086 579.543V558.625L178.203 558.293V579.445C178.203 581.372 178.431 582.681 178.887 583.371C179.342 584.048 180.228 584.387 181.543 584.387C182.194 584.387 183.021 584.315 184.023 584.172L184.16 587.824C184.147 587.824 183.984 587.857 183.672 587.922C183.372 587.987 183.079 588.039 182.793 588.078C182.52 588.13 182.168 588.176 181.738 588.215C181.309 588.267 180.911 588.293 180.547 588.293ZM193.555 588.391C190.391 588.391 187.858 587.85 185.957 586.77L186.484 582.922C187.344 583.391 188.438 583.814 189.766 584.191C191.094 584.556 192.305 584.738 193.398 584.738C194.531 584.738 195.41 584.53 196.035 584.113C196.673 583.684 196.999 583.059 197.012 582.238C197.012 581.496 196.712 580.91 196.113 580.48C195.527 580.051 194.401 579.517 192.734 578.879C192.161 578.671 191.79 578.534 191.621 578.469C189.642 577.701 188.216 576.848 187.344 575.91C186.471 574.96 186.035 573.677 186.035 572.062C186.035 570.109 186.738 568.612 188.145 567.57C189.564 566.529 191.536 566.008 194.062 566.008C196.797 566.008 199.199 566.522 201.27 567.551L200 571.086C197.956 570.135 196.009 569.66 194.16 569.66C193.132 569.66 192.324 569.836 191.738 570.188C191.165 570.526 190.879 571.047 190.879 571.75C190.879 572.414 191.159 572.935 191.719 573.312C192.279 573.677 193.372 574.159 195 574.758C195.052 574.771 195.221 574.829 195.508 574.934C195.794 575.038 196.016 575.122 196.172 575.188C198.138 575.904 199.583 576.763 200.508 577.766C201.432 578.755 201.895 580.051 201.895 581.652C201.882 583.801 201.152 585.461 199.707 586.633C198.262 587.805 196.211 588.391 193.555 588.391ZM213.887 588L224.414 559.367H230.176L240.547 588H235.117L232.285 579.914H222.266L219.414 588H213.887ZM223.594 575.969H230.938C228.594 568.456 227.389 564.576 227.324 564.328L223.594 575.969ZM252.5 588.41C249.219 588.41 246.66 587.434 244.824 585.48C243.001 583.527 242.09 580.734 242.09 577.102C242.09 573.586 243.047 570.858 244.961 568.918C246.888 566.978 249.421 566.008 252.559 566.008C255.072 566.008 257.194 566.548 258.926 567.629L257.715 571.281C255.944 570.357 254.297 569.895 252.773 569.895C251.042 569.895 249.674 570.513 248.672 571.75C247.682 572.987 247.188 574.79 247.188 577.16C247.188 579.556 247.676 581.379 248.652 582.629C249.642 583.879 251.035 584.504 252.832 584.504C254.707 584.504 256.51 583.951 258.242 582.844L258.73 586.73C257.832 587.329 256.901 587.759 255.938 588.02C254.974 588.28 253.828 588.41 252.5 588.41ZM276.875 596.926V587.844C276.875 586.945 276.921 586.021 277.012 585.07C275.658 587.31 273.613 588.43 270.879 588.43C268.105 588.43 265.872 587.388 264.18 585.305C262.487 583.221 261.641 580.507 261.641 577.16C261.641 573.84 262.441 571.151 264.043 569.094C265.645 567.036 267.884 566.008 270.762 566.008C273.587 566.008 275.703 567.095 277.109 569.27L277.52 566.535H282.012V596.672L276.875 596.926ZM271.875 584.543C273.542 584.543 274.818 583.983 275.703 582.863C276.589 581.743 277.044 579.973 277.07 577.551C277.07 574.895 276.628 572.961 275.742 571.75C274.87 570.526 273.561 569.914 271.816 569.914C270.241 569.914 268.997 570.526 268.086 571.75C267.188 572.974 266.738 574.797 266.738 577.219C266.738 579.615 267.194 581.438 268.105 582.688C269.017 583.924 270.273 584.543 271.875 584.543ZM302.734 586.32C301.029 587.714 298.783 588.41 295.996 588.41C293.21 588.41 290.964 587.714 289.258 586.32C287.565 584.927 286.719 582.883 286.719 580.188V566.535H291.855V579.992C291.855 581.594 292.188 582.753 292.852 583.469C293.529 584.185 294.596 584.543 296.055 584.543C297.487 584.543 298.529 584.191 299.18 583.488C299.844 582.772 300.176 581.607 300.176 579.992V566.535H305.293V580.188C305.293 582.87 304.44 584.914 302.734 586.32ZM310.098 588V566.535H315.215V588H310.098ZM310.098 563.41V559.035H315.234V563.41H310.098ZM320.586 588V566.535H324.883L325.547 569.816C326.953 567.564 328.991 566.438 331.66 566.438C332.22 566.438 332.676 566.464 333.027 566.516L332.949 570.793C332.428 570.715 331.888 570.676 331.328 570.676C329.44 570.676 328.027 571.177 327.09 572.18C326.165 573.182 325.703 574.576 325.703 576.359V588H320.586ZM345.879 588.41C342.428 588.41 339.74 587.421 337.812 585.441C335.898 583.449 334.941 580.702 334.941 577.199C334.941 573.788 335.846 571.073 337.656 569.055C339.466 567.036 341.934 566.021 345.059 566.008C348.014 566.008 350.306 566.932 351.934 568.781C353.574 570.63 354.395 573.085 354.395 576.145C354.395 576.366 354.388 576.724 354.375 577.219C354.375 577.714 354.375 578.078 354.375 578.312H340.098C340.15 580.318 340.697 581.874 341.738 582.98C342.793 584.074 344.238 584.621 346.074 584.621C348.418 584.621 350.671 584.009 352.832 582.785L353.555 586.418C351.406 587.746 348.848 588.41 345.879 588.41ZM340.195 575.09H349.57C349.57 573.345 349.173 572.004 348.379 571.066C347.585 570.129 346.484 569.66 345.078 569.66C343.763 569.66 342.65 570.116 341.738 571.027C340.84 571.939 340.326 573.293 340.195 575.09ZM366.562 588.41C363.763 588.41 361.562 587.382 359.961 585.324C358.359 583.267 357.559 580.52 357.559 577.082C357.559 573.749 358.353 571.073 359.941 569.055C361.543 567.023 363.743 566.008 366.543 566.008C369.59 566.008 371.745 567.089 373.008 569.25C372.878 567.974 372.812 566.743 372.812 565.559V558.625L377.93 558.293V588H373.496L372.93 585.07C372.708 585.422 372.5 585.728 372.305 585.988C372.122 586.236 371.849 586.529 371.484 586.867C371.12 587.193 370.723 587.46 370.293 587.668C369.876 587.863 369.342 588.033 368.691 588.176C368.053 588.332 367.344 588.41 366.562 588.41ZM367.773 584.523C371.211 584.523 372.956 582.186 373.008 577.512C373.008 574.868 372.565 572.941 371.68 571.73C370.794 570.52 369.473 569.914 367.715 569.914C366.178 569.914 364.948 570.533 364.023 571.77C363.112 572.993 362.656 574.803 362.656 577.199C362.656 579.582 363.112 581.398 364.023 582.648C364.948 583.898 366.198 584.523 367.773 584.523ZM382.539 588.117V582.941H387.715V588.117H382.539ZM382.539 571.574V566.398H387.715V571.574H382.539ZM135.801 638.293C135.801 640.09 135.221 641.639 134.062 642.941C132.904 644.243 131.536 644.895 129.961 644.895C128.359 644.895 126.999 644.257 125.879 642.98C124.759 641.704 124.199 640.181 124.199 638.41C124.199 636.626 124.785 635.077 125.957 633.762C127.129 632.447 128.49 631.789 130.039 631.789C131.615 631.789 132.969 632.434 134.102 633.723C135.234 634.999 135.801 636.522 135.801 638.293ZM180.723 650.148L162.012 641.184V639.289L180.762 629.66V632.746L165.625 640.148L180.723 647.062V650.148ZM189.277 653H185.82V623.781H195.234C196.667 623.781 197.962 623.931 199.121 624.23C200.28 624.53 201.309 624.986 202.207 625.598C203.105 626.21 203.802 627.03 204.297 628.059C204.792 629.087 205.039 630.285 205.039 631.652C205.039 632.785 204.935 633.801 204.727 634.699C204.518 635.585 204.16 636.418 203.652 637.199C203.145 637.98 202.48 638.632 201.66 639.152C200.84 639.66 199.785 640.064 198.496 640.363C197.22 640.65 195.736 640.793 194.043 640.793C192.702 640.793 191.113 640.708 189.277 640.539V653ZM194.375 637.805C195.651 637.805 196.745 637.681 197.656 637.434C198.568 637.186 199.264 636.88 199.746 636.516C200.241 636.151 200.625 635.676 200.898 635.09C201.185 634.504 201.361 633.97 201.426 633.488C201.491 632.993 201.523 632.401 201.523 631.711C201.523 630.057 200.964 628.84 199.844 628.059C198.737 627.277 197.227 626.887 195.312 626.887H189.277V637.766C191.79 637.792 193.49 637.805 194.375 637.805ZM211.406 638.566C211.406 642.277 212.259 645.194 213.965 647.316C215.671 649.426 218.19 650.48 221.523 650.48C224.857 650.48 227.363 649.426 229.043 647.316C230.736 645.207 231.582 642.29 231.582 638.566C231.582 634.764 230.729 631.815 229.023 629.719C227.331 627.622 224.837 626.574 221.543 626.574C218.249 626.574 215.736 627.622 214.004 629.719C212.272 631.815 211.406 634.764 211.406 638.566ZM235.195 638.566C235.195 640.767 234.889 642.779 234.277 644.602C233.678 646.424 232.806 647.993 231.66 649.309C230.527 650.611 229.095 651.626 227.363 652.355C225.632 653.072 223.685 653.43 221.523 653.43C218.607 653.43 216.107 652.811 214.023 651.574C211.953 650.324 210.397 648.592 209.355 646.379C208.327 644.152 207.812 641.542 207.812 638.547C207.812 633.924 209.017 630.279 211.426 627.609C213.835 624.94 217.207 623.605 221.543 623.605C225.814 623.605 229.154 624.953 231.562 627.648C233.984 630.331 235.195 633.97 235.195 638.566ZM244.316 653H240.938V624.113H244.316V653ZM274.141 653H270.312L255.312 630.266L254.336 628.918C254.44 631.652 254.492 634.094 254.492 636.242V653H251.328V624.113H255.098L270.137 646.848L271.133 648.195C271.042 644.042 270.996 641.639 270.996 640.988V624.113H274.141V653ZM289.961 653H286.562V627.102H277.676V624.113H298.848V627.102H289.961V653ZM301.875 648.234C304.883 649.719 308.105 650.461 311.543 650.461C315.775 650.461 317.891 648.534 317.891 644.68C317.891 643.43 317.552 642.421 316.875 641.652C316.211 640.871 314.993 640.259 313.223 639.816L307.48 638.371C303.092 637.264 300.898 634.921 300.898 631.34C300.898 628.592 301.842 626.555 303.73 625.227C305.618 623.885 308.229 623.215 311.562 623.215C313.307 623.215 314.941 623.404 316.465 623.781C317.988 624.159 319.264 624.667 320.293 625.305L319.316 628.059C318.444 627.577 317.285 627.147 315.84 626.77C314.408 626.392 312.956 626.203 311.484 626.203C306.771 626.203 304.414 627.837 304.414 631.105C304.414 632.212 304.772 633.104 305.488 633.781C306.217 634.445 307.305 634.953 308.75 635.305L314.238 636.633C316.582 637.193 318.359 638.091 319.57 639.328C320.781 640.552 321.387 642.297 321.387 644.562C321.387 647.505 320.482 649.725 318.672 651.223C316.875 652.707 314.427 653.449 311.328 653.449C309.01 653.449 306.947 653.215 305.137 652.746C303.34 652.264 301.914 651.698 300.859 651.047L301.875 648.234ZM325.254 646.926L340.371 640.148L325.293 632.609V629.562L344.004 639.309V641.203L325.254 650.031V646.926Z" fill="black"/>
<circle cx="1516.5" cy="100" r="55" fill="black" stroke="white" stroke-width="10"/>
<rect x="1099" y="200" width="835" height="944" rx="28" fill="white"/>
<path opacity="0.7" d="M1355.92 283.449L1328.57 270.733V267.222L1355.95 253.571V259.405L1335.99 268.836L1355.92 277.644V283.449ZM1373.11 289V272.546L1358.76 247.511H1367.08L1376.97 265.466L1386.91 247.511H1395.12L1380.82 272.404V289H1373.11ZM1398.83 289V247.511H1423.98L1423.67 253.6H1406.5V264.305H1422.82V270.394H1406.5V282.883H1424.29L1424.03 289H1398.83ZM1426.89 289L1442.16 247.482H1450.51L1465.55 289H1457.68L1453.57 277.275H1439.04L1434.91 289H1426.89ZM1440.97 271.555H1451.62C1448.22 260.661 1446.47 255.035 1446.38 254.676L1440.97 271.555ZM1469.49 289V247.397H1484.87C1486.96 247.397 1488.77 247.492 1490.3 247.681C1491.85 247.869 1493.32 248.219 1494.69 248.729C1496.09 249.219 1497.21 249.89 1498.06 250.739C1498.93 251.589 1499.61 252.703 1500.1 254.081C1500.61 255.44 1500.87 257.055 1500.87 258.924C1500.87 264.437 1498.37 268.062 1493.36 269.799C1494.38 270.951 1495.65 273.084 1497.16 276.199L1503.33 289H1494.95L1490.11 278.153C1488.27 274.264 1487.14 271.961 1486.71 271.243C1486.39 271.224 1485.32 271.215 1483.51 271.215L1477.08 271.158V289H1469.49ZM1485.55 265.664C1488.49 265.664 1490.61 265.145 1491.89 264.106C1493.17 263.049 1493.82 261.359 1493.82 259.037C1493.82 256.998 1493.16 255.497 1491.86 254.534C1490.56 253.571 1488.57 253.09 1485.89 253.09H1477.08V265.636C1477.36 265.636 1478.77 265.645 1481.3 265.664C1483.83 265.664 1485.24 265.664 1485.55 265.664ZM1506.16 294.353L1523.78 246.831H1529.95L1512.2 294.353H1506.16ZM1543.77 282.854H1549.27C1554.01 282.854 1557.61 281.618 1560.08 279.145C1562.56 276.652 1563.79 273.027 1563.79 268.27C1563.79 263.172 1562.52 259.471 1559.97 257.168C1557.42 254.846 1553.58 253.685 1548.45 253.685H1543.77V282.854ZM1536.1 289V247.511H1548.11C1551.73 247.511 1554.98 247.926 1557.85 248.757C1560.72 249.588 1563.18 250.843 1565.24 252.523C1567.32 254.185 1568.9 256.337 1570 258.98C1571.11 261.605 1571.67 264.645 1571.67 268.1C1571.67 274.802 1569.65 279.966 1565.61 283.591C1561.57 287.197 1555.97 289 1548.81 289H1536.1ZM1572.91 289L1588.18 247.482H1596.53L1611.57 289H1603.7L1599.59 277.275H1585.06L1580.93 289H1572.91ZM1586.99 271.555H1597.64C1594.24 260.661 1592.49 255.035 1592.4 254.676L1586.99 271.555ZM1621.46 289V253.656H1609.36V247.511H1641.19V253.656H1629.16V289H1621.46ZM1645.67 289V247.511H1670.82L1670.51 253.6H1653.34V264.305H1669.66V270.394H1653.34V282.883H1671.13L1670.87 289H1645.67ZM1677.19 283.421V277.587L1697.13 268.836L1677.19 259.349V253.515L1704.58 267.222V270.733L1677.19 283.421Z" fill="black"/>
<path d="M1339.33 408.449L1311.97 395.733V392.222L1339.36 378.571V384.405L1319.39 393.836L1339.33 402.644V408.449ZM1355.07 414V378.656H1342.98V372.511H1374.81V378.656H1362.78V414H1355.07ZM1379.88 414V372.511H1387.56V414H1379.88ZM1404.75 414V378.656H1392.66V372.511H1424.49V378.656H1412.45V414H1404.75ZM1428.96 414V372.511H1436.64V407.883H1454L1453.77 414H1428.96ZM1459.32 414V372.511H1484.47L1484.16 378.6H1467V389.305H1483.31V395.394H1467V407.883H1484.78L1484.53 414H1459.32ZM1490.84 408.421V402.587L1510.78 393.836L1490.84 384.349V378.515L1518.23 392.222V395.733L1490.84 408.421ZM1539.1 414L1538.93 407.883L1552.04 393.043C1553.67 391.306 1554.85 389.711 1555.58 388.257C1556.34 386.784 1556.71 385.236 1556.71 383.612C1556.71 381.819 1556.13 380.393 1554.96 379.336C1553.79 378.26 1552.25 377.722 1550.34 377.722C1548.59 377.722 1546.85 378.052 1545.13 378.713C1543.43 379.355 1542.04 380.167 1540.94 381.148L1538.82 375.541C1541.65 373.049 1545.63 371.803 1550.77 371.803C1554.85 371.803 1558.12 372.832 1560.59 374.89C1563.09 376.929 1564.33 379.817 1564.33 383.556C1564.33 386.199 1563.62 388.719 1562.21 391.117C1560.81 393.515 1558.9 395.979 1556.46 398.509L1547.11 408.421H1563.85L1563.34 414H1539.1ZM1571.02 414V372.511H1578.69V407.883H1596.05L1595.83 414H1571.02ZM1601.57 414V372.511H1609.25V414H1601.57ZM1618.42 414V372.511H1626.58C1628.05 374.814 1631.05 379.459 1635.56 386.444C1640.07 393.43 1642.82 397.678 1643.8 399.188C1644.08 399.623 1644.56 400.359 1645.24 401.397C1645.94 402.417 1646.43 403.144 1646.72 403.578C1646.58 397.102 1646.52 393.742 1646.52 393.496V372.511H1653.51V414H1645.24L1626.52 384.83L1625.17 382.593C1625.32 387.577 1625.39 391.079 1625.39 393.1V414H1618.42ZM1662.43 414V372.511H1687.58L1687.27 378.6H1670.11V389.305H1686.42V395.394H1670.11V407.883H1687.89L1687.64 414H1662.43ZM1706.7 414.566C1701.7 414.566 1697.21 413.415 1693.25 411.111L1695.12 405.022C1696.89 406.004 1698.82 406.797 1700.89 407.401C1702.99 408.006 1705.03 408.308 1707.01 408.308C1709.45 408.308 1711.29 407.788 1712.53 406.75C1713.78 405.693 1714.4 404.182 1714.4 402.219C1714.4 399.613 1712.67 397.81 1709.19 396.81C1708.95 396.734 1708.26 396.536 1707.12 396.215C1705.99 395.875 1704.92 395.554 1703.92 395.252C1702.94 394.931 1702.23 394.686 1701.8 394.516C1696.23 392.552 1693.45 388.889 1693.45 383.527C1693.45 379.77 1694.78 376.872 1697.44 374.833C1700.12 372.794 1703.67 371.774 1708.09 371.774C1713.09 371.774 1717.4 372.803 1721.03 374.861L1718.71 380.469C1715.01 378.807 1711.57 377.977 1708.4 377.977C1706.11 377.977 1704.39 378.382 1703.22 379.194C1702.06 379.987 1701.45 381.318 1701.38 383.188C1701.38 385.491 1702.52 386.992 1704.8 387.69C1705.25 387.86 1706.37 388.229 1708.14 388.795C1709.92 389.361 1711.07 389.729 1711.6 389.899C1715.39 391.146 1718.1 392.694 1719.73 394.544C1721.37 396.394 1722.19 398.971 1722.19 402.275C1722.19 406.221 1720.79 409.261 1718 411.395C1715.2 413.509 1711.44 414.566 1706.7 414.566Z" fill="black"/>
<path d="M1173.22 496.148L1154.51 487.184V485.289L1173.26 475.66V478.746L1158.12 486.148L1173.22 493.062V496.148ZM1186.62 496.637C1188.77 496.637 1190.36 495.947 1191.41 494.566C1192.46 493.186 1192.99 491.214 1192.99 488.648C1192.99 485.758 1192.48 483.583 1191.46 482.125C1190.46 480.654 1188.83 479.918 1186.58 479.918C1185.58 479.918 1184.69 480.133 1183.93 480.562C1183.16 480.992 1182.54 481.591 1182.07 482.359C1181.6 483.128 1181.24 484.013 1181 485.016C1180.76 486.005 1180.64 487.092 1180.64 488.277C1180.64 489.944 1180.85 491.389 1181.25 492.613C1181.67 493.837 1182.33 494.814 1183.24 495.543C1184.15 496.272 1185.28 496.637 1186.62 496.637ZM1193.05 495.895C1192.34 496.975 1191.41 497.835 1190.23 498.473C1189.06 499.111 1187.75 499.43 1186.31 499.43C1183.48 499.43 1181.27 498.427 1179.67 496.422C1178.07 494.404 1177.27 491.663 1177.27 488.199C1177.27 484.892 1178.08 482.223 1179.71 480.191C1181.33 478.147 1183.52 477.125 1186.25 477.125C1187.67 477.125 1189 477.438 1190.25 478.062C1191.52 478.674 1192.46 479.501 1193.09 480.543L1193.03 478.688V469.254L1196.25 469.059V499H1193.48L1193.05 495.895ZM1214.28 481.539C1213.33 480.393 1212.02 479.82 1210.35 479.82C1208.68 479.82 1207.32 480.413 1206.27 481.598C1205.21 482.77 1204.6 484.378 1204.41 486.422H1215.72C1215.72 484.299 1215.24 482.672 1214.28 481.539ZM1211 499.449C1207.88 499.449 1205.43 498.46 1203.63 496.48C1201.85 494.501 1200.96 491.793 1200.96 488.355C1200.96 485.035 1201.82 482.346 1203.55 480.289C1205.29 478.219 1207.57 477.164 1210.39 477.125C1213.05 477.125 1215.15 478.036 1216.7 479.859C1218.26 481.669 1219.04 484.091 1219.04 487.125C1219.04 487.281 1219.04 487.568 1219.02 487.984C1219.02 488.401 1219.02 488.701 1219.02 488.883H1204.32C1204.36 491.318 1204.98 493.219 1206.19 494.586C1207.42 495.94 1209.06 496.617 1211.11 496.617C1213.38 496.617 1215.65 496.018 1217.93 494.82L1218.44 497.457C1216.26 498.785 1213.78 499.449 1211 499.449ZM1229.96 499.449C1228.5 499.449 1227.15 499.293 1225.92 498.98C1224.69 498.668 1223.7 498.264 1222.93 497.77L1223.34 495.016C1225.51 496.174 1227.65 496.754 1229.75 496.754C1232.92 496.754 1234.56 495.634 1234.65 493.395C1234.65 492.444 1234.31 491.695 1233.63 491.148C1232.96 490.602 1231.63 489.99 1229.65 489.312L1228.03 488.746C1226.15 488.121 1224.81 487.346 1224 486.422C1223.21 485.497 1222.81 484.345 1222.79 482.965C1222.79 481.285 1223.46 479.892 1224.8 478.785C1226.16 477.678 1228.01 477.125 1230.35 477.125C1232.77 477.125 1234.98 477.594 1236.97 478.531L1236.02 481.031C1234 480.198 1232.11 479.781 1230.35 479.781C1228.98 479.781 1227.91 480.055 1227.13 480.602C1226.36 481.135 1225.98 481.891 1225.98 482.867C1225.98 483.701 1226.26 484.339 1226.82 484.781C1227.38 485.224 1228.5 485.732 1230.18 486.305C1230.61 486.461 1231.15 486.643 1231.8 486.852C1233.96 487.555 1235.49 488.388 1236.39 489.352C1237.29 490.302 1237.73 491.591 1237.73 493.219C1237.71 495.198 1237 496.734 1235.61 497.828C1234.21 498.909 1232.33 499.449 1229.96 499.449ZM1251.27 499.449C1248.12 499.449 1245.65 498.427 1243.87 496.383C1242.1 494.339 1241.21 491.663 1241.21 488.355C1241.22 485.022 1242.13 482.32 1243.93 480.25C1245.74 478.167 1248.21 477.125 1251.35 477.125C1252.45 477.125 1253.52 477.262 1254.55 477.535C1255.59 477.809 1256.41 478.167 1257.01 478.609L1256.11 481.148C1254.59 480.328 1252.98 479.918 1251.29 479.918C1249.22 479.918 1247.58 480.673 1246.37 482.184C1245.17 483.694 1244.57 485.758 1244.57 488.375C1244.57 490.927 1245.16 492.952 1246.35 494.449C1247.55 495.934 1249.2 496.676 1251.31 496.676C1252.99 496.676 1254.71 496.22 1256.46 495.309L1256.88 497.906C1255.46 498.935 1253.59 499.449 1251.27 499.449ZM1270.72 477.379C1271.31 477.379 1271.84 477.418 1272.32 477.496L1272.21 480.504C1271.61 480.4 1271.09 480.348 1270.64 480.348C1268.82 480.348 1267.34 480.986 1266.19 482.262C1265.06 483.525 1264.49 485.094 1264.49 486.969V499H1261.23C1261.22 485.849 1261.21 478.707 1261.21 477.574H1263.93L1264.24 481.422C1264.98 480.211 1265.92 479.234 1267.07 478.492C1268.22 477.75 1269.43 477.379 1270.72 477.379ZM1279.53 477.574V499H1276.25V477.574H1279.53ZM1279.53 469.781V473.648H1276.25V469.781H1279.53ZM1285.68 508.297V477.574H1288.55L1288.87 480.484C1290.74 478.245 1292.99 477.125 1295.62 477.125C1297.58 477.125 1299.23 477.613 1300.59 478.59C1301.94 479.566 1302.94 480.888 1303.57 482.555C1304.23 484.221 1304.55 486.168 1304.55 488.395C1304.55 490.53 1304.2 492.431 1303.5 494.098C1302.79 495.751 1301.76 497.06 1300.39 498.023C1299.04 498.974 1297.45 499.449 1295.62 499.449C1294.24 499.449 1292.95 499.143 1291.74 498.531C1290.53 497.906 1289.56 497.086 1288.83 496.07C1288.91 497.477 1288.95 498.844 1288.95 500.172V508.082L1285.68 508.297ZM1295.18 496.695C1296.17 496.695 1297.05 496.474 1297.83 496.031C1298.61 495.576 1299.24 494.957 1299.73 494.176C1300.21 493.395 1300.57 492.509 1300.82 491.52C1301.07 490.517 1301.19 489.436 1301.19 488.277C1301.19 485.829 1300.68 483.824 1299.65 482.262C1298.62 480.686 1297.12 479.898 1295.14 479.898C1291 479.898 1288.93 482.574 1288.93 487.926C1288.93 490.829 1289.41 493.017 1290.37 494.488C1291.35 495.96 1292.95 496.695 1295.18 496.695ZM1316 499.391C1313.89 499.391 1312.39 498.876 1311.5 497.848C1310.62 496.819 1310.15 495.159 1310.1 492.867V479.996H1306.91L1307.05 477.848L1310.08 477.574L1311.19 472.672L1313.34 472.594V477.574H1319.3V479.996H1313.34V492.281C1313.34 493.909 1313.59 495.055 1314.08 495.719C1314.58 496.383 1315.42 496.715 1316.62 496.715C1317.05 496.715 1317.98 496.611 1319.41 496.402L1319.55 498.98C1318 499.254 1316.82 499.391 1316 499.391ZM1326.88 477.574V499H1323.59V477.574H1326.88ZM1326.88 469.781V473.648H1323.59V469.781H1326.88ZM1335.41 488.336C1335.41 490.875 1335.97 492.913 1337.09 494.449C1338.22 495.973 1339.87 496.734 1342.03 496.734C1344.17 496.734 1345.77 495.973 1346.86 494.449C1347.95 492.926 1348.5 490.875 1348.5 488.297C1348.5 485.68 1347.96 483.622 1346.88 482.125C1345.81 480.615 1344.17 479.859 1341.97 479.859C1339.84 479.859 1338.21 480.628 1337.09 482.164C1335.97 483.701 1335.41 485.758 1335.41 488.336ZM1351.88 488.277C1351.88 491.598 1350.99 494.293 1349.22 496.363C1347.45 498.421 1345 499.449 1341.88 499.449C1338.87 499.449 1336.47 498.408 1334.69 496.324C1332.92 494.241 1332.03 491.565 1332.03 488.297C1332.03 484.964 1332.92 482.268 1334.71 480.211C1336.49 478.154 1338.94 477.125 1342.05 477.125C1345.11 477.125 1347.51 478.16 1349.26 480.23C1351 482.288 1351.88 484.97 1351.88 488.277ZM1356.5 499V477.574H1359.24L1359.65 480.641C1360.49 479.586 1361.55 478.74 1362.81 478.102C1364.09 477.451 1365.46 477.125 1366.93 477.125C1369.41 477.125 1371.24 477.822 1372.42 479.215C1373.61 480.595 1374.2 482.724 1374.2 485.602V499H1370.94C1370.94 490.406 1370.93 485.803 1370.92 485.191C1370.87 483.368 1370.49 482.034 1369.8 481.188C1369.13 480.341 1367.99 479.918 1366.39 479.918C1364.71 479.918 1363.31 480.322 1362.19 481.129C1361.07 481.936 1360.34 482.984 1360 484.273C1359.87 485.146 1359.8 486.148 1359.8 487.281V499H1356.5ZM1379.08 492.926L1394.2 486.148L1379.12 478.609V475.562L1397.83 485.309V487.203L1379.08 496.031V492.926Z" fill="black"/>
<path d="M1160.11 588.391C1156.66 588.391 1153.57 587.596 1150.84 586.008L1152.12 581.809C1153.35 582.486 1154.68 583.033 1156.11 583.449C1157.55 583.866 1158.96 584.074 1160.33 584.074C1162.01 584.074 1163.28 583.716 1164.14 583C1165 582.271 1165.43 581.229 1165.43 579.875C1165.43 578.078 1164.23 576.835 1161.83 576.145C1161.66 576.092 1161.19 575.956 1160.41 575.734C1159.62 575.5 1158.89 575.279 1158.2 575.07C1157.52 574.849 1157.03 574.68 1156.73 574.562C1152.89 573.208 1150.97 570.682 1150.97 566.984C1150.97 564.393 1151.89 562.395 1153.73 560.988C1155.58 559.582 1158.02 558.879 1161.07 558.879C1164.52 558.879 1167.5 559.589 1170 561.008L1168.39 564.875C1165.84 563.729 1163.47 563.156 1161.29 563.156C1159.71 563.156 1158.52 563.436 1157.71 563.996C1156.92 564.543 1156.49 565.461 1156.44 566.75C1156.44 568.339 1157.23 569.374 1158.8 569.855C1159.12 569.973 1159.89 570.227 1161.11 570.617C1162.33 571.008 1163.13 571.262 1163.49 571.379C1166.11 572.238 1167.98 573.306 1169.1 574.582C1170.23 575.858 1170.8 577.635 1170.8 579.914C1170.8 582.635 1169.83 584.732 1167.91 586.203C1165.98 587.661 1163.38 588.391 1160.11 588.391ZM1174.84 588V558.625L1179.96 558.293V571.477L1179.84 575.812C1179.85 575.799 1179.98 575.669 1180.23 575.422C1180.49 575.174 1180.63 575.038 1180.66 575.012C1181.38 574.165 1182.15 573.293 1182.98 572.395C1183.83 571.496 1184.89 570.396 1186.17 569.094C1187.46 567.792 1188.3 566.939 1188.69 566.535H1194.78L1185.95 575.676L1195.35 588H1189.16L1182.09 578.254L1179.96 579.934V588H1174.84ZM1197.89 588V566.535H1203V588H1197.89ZM1197.89 563.41V559.035H1203.02V563.41H1197.89ZM1215.88 588.293C1214.4 588.293 1213.18 588.124 1212.2 587.785C1211.24 587.434 1210.48 586.88 1209.92 586.125C1209.36 585.37 1208.97 584.471 1208.75 583.43C1208.52 582.388 1208.41 581.092 1208.41 579.543V558.625L1213.53 558.293V579.445C1213.53 581.372 1213.76 582.681 1214.21 583.371C1214.67 584.048 1215.56 584.387 1216.87 584.387C1217.52 584.387 1218.35 584.315 1219.35 584.172L1219.49 587.824C1219.48 587.824 1219.31 587.857 1219 587.922C1218.7 587.987 1218.41 588.039 1218.12 588.078C1217.85 588.13 1217.5 588.176 1217.07 588.215C1216.64 588.267 1216.24 588.293 1215.88 588.293ZM1229.55 588.293C1228.08 588.293 1226.85 588.124 1225.88 587.785C1224.91 587.434 1224.15 586.88 1223.59 586.125C1223.03 585.37 1222.64 584.471 1222.42 583.43C1222.2 582.388 1222.09 581.092 1222.09 579.543V558.625L1227.2 558.293V579.445C1227.2 581.372 1227.43 582.681 1227.89 583.371C1228.34 584.048 1229.23 584.387 1230.54 584.387C1231.19 584.387 1232.02 584.315 1233.02 584.172L1233.16 587.824C1233.15 587.824 1232.98 587.857 1232.67 587.922C1232.37 587.987 1232.08 588.039 1231.79 588.078C1231.52 588.13 1231.17 588.176 1230.74 588.215C1230.31 588.267 1229.91 588.293 1229.55 588.293ZM1242.55 588.391C1239.39 588.391 1236.86 587.85 1234.96 586.77L1235.48 582.922C1236.34 583.391 1237.44 583.814 1238.77 584.191C1240.09 584.556 1241.3 584.738 1242.4 584.738C1243.53 584.738 1244.41 584.53 1245.04 584.113C1245.67 583.684 1246 583.059 1246.01 582.238C1246.01 581.496 1245.71 580.91 1245.11 580.48C1244.53 580.051 1243.4 579.517 1241.73 578.879C1241.16 578.671 1240.79 578.534 1240.62 578.469C1238.64 577.701 1237.22 576.848 1236.34 575.91C1235.47 574.96 1235.04 573.677 1235.04 572.062C1235.04 570.109 1235.74 568.612 1237.14 567.57C1238.56 566.529 1240.54 566.008 1243.06 566.008C1245.8 566.008 1248.2 566.522 1250.27 567.551L1249 571.086C1246.96 570.135 1245.01 569.66 1243.16 569.66C1242.13 569.66 1241.32 569.836 1240.74 570.188C1240.17 570.526 1239.88 571.047 1239.88 571.75C1239.88 572.414 1240.16 572.935 1240.72 573.312C1241.28 573.677 1242.37 574.159 1244 574.758C1244.05 574.771 1244.22 574.829 1244.51 574.934C1244.79 575.038 1245.02 575.122 1245.17 575.188C1247.14 575.904 1248.58 576.763 1249.51 577.766C1250.43 578.755 1250.89 580.051 1250.89 581.652C1250.88 583.801 1250.15 585.461 1248.71 586.633C1247.26 587.805 1245.21 588.391 1242.55 588.391ZM1262.89 588L1273.41 559.367H1279.18L1289.55 588H1284.12L1281.29 579.914H1271.27L1268.41 588H1262.89ZM1272.59 575.969H1279.94C1277.59 568.456 1276.39 564.576 1276.32 564.328L1272.59 575.969ZM1301.5 588.41C1298.22 588.41 1295.66 587.434 1293.82 585.48C1292 583.527 1291.09 580.734 1291.09 577.102C1291.09 573.586 1292.05 570.858 1293.96 568.918C1295.89 566.978 1298.42 566.008 1301.56 566.008C1304.07 566.008 1306.19 566.548 1307.93 567.629L1306.71 571.281C1304.94 570.357 1303.3 569.895 1301.77 569.895C1300.04 569.895 1298.67 570.513 1297.67 571.75C1296.68 572.987 1296.19 574.79 1296.19 577.16C1296.19 579.556 1296.68 581.379 1297.65 582.629C1298.64 583.879 1300.04 584.504 1301.83 584.504C1303.71 584.504 1305.51 583.951 1307.24 582.844L1307.73 586.73C1306.83 587.329 1305.9 587.759 1304.94 588.02C1303.97 588.28 1302.83 588.41 1301.5 588.41ZM1325.88 596.926V587.844C1325.88 586.945 1325.92 586.021 1326.01 585.07C1324.66 587.31 1322.61 588.43 1319.88 588.43C1317.11 588.43 1314.87 587.388 1313.18 585.305C1311.49 583.221 1310.64 580.507 1310.64 577.16C1310.64 573.84 1311.44 571.151 1313.04 569.094C1314.64 567.036 1316.88 566.008 1319.76 566.008C1322.59 566.008 1324.7 567.095 1326.11 569.27L1326.52 566.535H1331.01V596.672L1325.88 596.926ZM1320.88 584.543C1322.54 584.543 1323.82 583.983 1324.7 582.863C1325.59 581.743 1326.04 579.973 1326.07 577.551C1326.07 574.895 1325.63 572.961 1324.74 571.75C1323.87 570.526 1322.56 569.914 1320.82 569.914C1319.24 569.914 1318 570.526 1317.09 571.75C1316.19 572.974 1315.74 574.797 1315.74 577.219C1315.74 579.615 1316.19 581.438 1317.11 582.688C1318.02 583.924 1319.27 584.543 1320.88 584.543ZM1351.73 586.32C1350.03 587.714 1347.78 588.41 1345 588.41C1342.21 588.41 1339.96 587.714 1338.26 586.32C1336.57 584.927 1335.72 582.883 1335.72 580.188V566.535H1340.86V579.992C1340.86 581.594 1341.19 582.753 1341.85 583.469C1342.53 584.185 1343.6 584.543 1345.05 584.543C1346.49 584.543 1347.53 584.191 1348.18 583.488C1348.84 582.772 1349.18 581.607 1349.18 579.992V566.535H1354.29V580.188C1354.29 582.87 1353.44 584.914 1351.73 586.32ZM1359.1 588V566.535H1364.21V588H1359.1ZM1359.1 563.41V559.035H1364.23V563.41H1359.1ZM1369.59 588V566.535H1373.88L1374.55 569.816C1375.95 567.564 1377.99 566.438 1380.66 566.438C1381.22 566.438 1381.68 566.464 1382.03 566.516L1381.95 570.793C1381.43 570.715 1380.89 570.676 1380.33 570.676C1378.44 570.676 1377.03 571.177 1376.09 572.18C1375.17 573.182 1374.7 574.576 1374.7 576.359V588H1369.59ZM1394.88 588.41C1391.43 588.41 1388.74 587.421 1386.81 585.441C1384.9 583.449 1383.94 580.702 1383.94 577.199C1383.94 573.788 1384.85 571.073 1386.66 569.055C1388.47 567.036 1390.93 566.021 1394.06 566.008C1397.01 566.008 1399.31 566.932 1400.93 568.781C1402.57 570.63 1403.39 573.085 1403.39 576.145C1403.39 576.366 1403.39 576.724 1403.38 577.219C1403.38 577.714 1403.38 578.078 1403.38 578.312H1389.1C1389.15 580.318 1389.7 581.874 1390.74 582.98C1391.79 584.074 1393.24 584.621 1395.07 584.621C1397.42 584.621 1399.67 584.009 1401.83 582.785L1402.55 586.418C1400.41 587.746 1397.85 588.41 1394.88 588.41ZM1389.2 575.09H1398.57C1398.57 573.345 1398.17 572.004 1397.38 571.066C1396.58 570.129 1395.48 569.66 1394.08 569.66C1392.76 569.66 1391.65 570.116 1390.74 571.027C1389.84 571.939 1389.33 573.293 1389.2 575.09ZM1415.56 588.41C1412.76 588.41 1410.56 587.382 1408.96 585.324C1407.36 583.267 1406.56 580.52 1406.56 577.082C1406.56 573.749 1407.35 571.073 1408.94 569.055C1410.54 567.023 1412.74 566.008 1415.54 566.008C1418.59 566.008 1420.74 567.089 1422.01 569.25C1421.88 567.974 1421.81 566.743 1421.81 565.559V558.625L1426.93 558.293V588H1422.5L1421.93 585.07C1421.71 585.422 1421.5 585.728 1421.3 585.988C1421.12 586.236 1420.85 586.529 1420.48 586.867C1420.12 587.193 1419.72 587.46 1419.29 587.668C1418.88 587.863 1418.34 588.033 1417.69 588.176C1417.05 588.332 1416.34 588.41 1415.56 588.41ZM1416.77 584.523C1420.21 584.523 1421.96 582.186 1422.01 577.512C1422.01 574.868 1421.57 572.941 1420.68 571.73C1419.79 570.52 1418.47 569.914 1416.71 569.914C1415.18 569.914 1413.95 570.533 1413.02 571.77C1412.11 572.993 1411.66 574.803 1411.66 577.199C1411.66 579.582 1412.11 581.398 1413.02 582.648C1413.95 583.898 1415.2 584.523 1416.77 584.523ZM1431.54 588.117V582.941H1436.71V588.117H1431.54ZM1431.54 571.574V566.398H1436.71V571.574H1431.54ZM1184.8 638.293C1184.8 640.09 1184.22 641.639 1183.06 642.941C1181.9 644.243 1180.54 644.895 1178.96 644.895C1177.36 644.895 1176 644.257 1174.88 642.98C1173.76 641.704 1173.2 640.181 1173.2 638.41C1173.2 636.626 1173.79 635.077 1174.96 633.762C1176.13 632.447 1177.49 631.789 1179.04 631.789C1180.61 631.789 1181.97 632.434 1183.1 633.723C1184.23 634.999 1184.8 636.522 1184.8 638.293ZM1229.72 650.148L1211.01 641.184V639.289L1229.76 629.66V632.746L1214.62 640.148L1229.72 647.062V650.148ZM1238.28 653H1234.82V623.781H1244.23C1245.67 623.781 1246.96 623.931 1248.12 624.23C1249.28 624.53 1250.31 624.986 1251.21 625.598C1252.11 626.21 1252.8 627.03 1253.3 628.059C1253.79 629.087 1254.04 630.285 1254.04 631.652C1254.04 632.785 1253.93 633.801 1253.73 634.699C1253.52 635.585 1253.16 636.418 1252.65 637.199C1252.14 637.98 1251.48 638.632 1250.66 639.152C1249.84 639.66 1248.79 640.064 1247.5 640.363C1246.22 640.65 1244.74 640.793 1243.04 640.793C1241.7 640.793 1240.11 640.708 1238.28 640.539V653ZM1243.38 637.805C1244.65 637.805 1245.74 637.681 1246.66 637.434C1247.57 637.186 1248.26 636.88 1248.75 636.516C1249.24 636.151 1249.62 635.676 1249.9 635.09C1250.18 634.504 1250.36 633.97 1250.43 633.488C1250.49 632.993 1250.52 632.401 1250.52 631.711C1250.52 630.057 1249.96 628.84 1248.84 628.059C1247.74 627.277 1246.23 626.887 1244.31 626.887H1238.28V637.766C1240.79 637.792 1242.49 637.805 1243.38 637.805ZM1260.41 638.566C1260.41 642.277 1261.26 645.194 1262.96 647.316C1264.67 649.426 1267.19 650.48 1270.52 650.48C1273.86 650.48 1276.36 649.426 1278.04 647.316C1279.74 645.207 1280.58 642.29 1280.58 638.566C1280.58 634.764 1279.73 631.815 1278.02 629.719C1276.33 627.622 1273.84 626.574 1270.54 626.574C1267.25 626.574 1264.74 627.622 1263 629.719C1261.27 631.815 1260.41 634.764 1260.41 638.566ZM1284.2 638.566C1284.2 640.767 1283.89 642.779 1283.28 644.602C1282.68 646.424 1281.81 647.993 1280.66 649.309C1279.53 650.611 1278.1 651.626 1276.36 652.355C1274.63 653.072 1272.68 653.43 1270.52 653.43C1267.61 653.43 1265.11 652.811 1263.02 651.574C1260.95 650.324 1259.4 648.592 1258.36 646.379C1257.33 644.152 1256.81 641.542 1256.81 638.547C1256.81 633.924 1258.02 630.279 1260.43 627.609C1262.83 624.94 1266.21 623.605 1270.54 623.605C1274.81 623.605 1278.15 624.953 1280.56 627.648C1282.98 630.331 1284.2 633.97 1284.2 638.566ZM1293.32 653H1289.94V624.113H1293.32V653ZM1323.14 653H1319.31L1304.31 630.266L1303.34 628.918C1303.44 631.652 1303.49 634.094 1303.49 636.242V653H1300.33V624.113H1304.1L1319.14 646.848L1320.13 648.195C1320.04 644.042 1320 641.639 1320 640.988V624.113H1323.14V653ZM1338.96 653H1335.56V627.102H1326.68V624.113H1347.85V627.102H1338.96V653ZM1350.88 648.234C1353.88 649.719 1357.11 650.461 1360.54 650.461C1364.77 650.461 1366.89 648.534 1366.89 644.68C1366.89 643.43 1366.55 642.421 1365.88 641.652C1365.21 640.871 1363.99 640.259 1362.22 639.816L1356.48 638.371C1352.09 637.264 1349.9 634.921 1349.9 631.34C1349.9 628.592 1350.84 626.555 1352.73 625.227C1354.62 623.885 1357.23 623.215 1360.56 623.215C1362.31 623.215 1363.94 623.404 1365.46 623.781C1366.99 624.159 1368.26 624.667 1369.29 625.305L1368.32 628.059C1367.44 627.577 1366.29 627.147 1364.84 626.77C1363.41 626.392 1361.96 626.203 1360.48 626.203C1355.77 626.203 1353.41 627.837 1353.41 631.105C1353.41 632.212 1353.77 633.104 1354.49 633.781C1355.22 634.445 1356.3 634.953 1357.75 635.305L1363.24 636.633C1365.58 637.193 1367.36 638.091 1368.57 639.328C1369.78 640.552 1370.39 642.297 1370.39 644.562C1370.39 647.505 1369.48 649.725 1367.67 651.223C1365.88 652.707 1363.43 653.449 1360.33 653.449C1358.01 653.449 1355.95 653.215 1354.14 652.746C1352.34 652.264 1350.91 651.698 1349.86 651.047L1350.88 648.234ZM1374.25 646.926L1389.37 640.148L1374.29 632.609V629.562L1393 639.309V641.203L1374.25 650.031V646.926Z" fill="black"/>
<circle cx="2565.5" cy="100" r="55" fill="black" stroke="white" stroke-width="10"/>
<rect x="2148" y="200" width="835" height="944" rx="28" fill="white"/>
<path opacity="0.7" d="M2404.92 283.449L2377.57 270.733V267.222L2404.95 253.571V259.405L2384.99 268.836L2404.92 277.644V283.449ZM2422.11 289V272.546L2407.76 247.511H2416.08L2425.97 265.466L2435.91 247.511H2444.12L2429.82 272.404V289H2422.11ZM2447.83 289V247.511H2472.98L2472.67 253.6H2455.5V264.305H2471.82V270.394H2455.5V282.883H2473.29L2473.03 289H2447.83ZM2475.89 289L2491.16 247.482H2499.51L2514.55 289H2506.68L2502.57 277.275H2488.04L2483.91 289H2475.89ZM2489.97 271.555H2500.62C2497.22 260.661 2495.47 255.035 2495.38 254.676L2489.97 271.555ZM2518.49 289V247.397H2533.87C2535.96 247.397 2537.77 247.492 2539.3 247.681C2540.85 247.869 2542.32 248.219 2543.69 248.729C2545.09 249.219 2546.21 249.89 2547.06 250.739C2547.93 251.589 2548.61 252.703 2549.1 254.081C2549.61 255.44 2549.87 257.055 2549.87 258.924C2549.87 264.437 2547.37 268.062 2542.36 269.799C2543.38 270.951 2544.65 273.084 2546.16 276.199L2552.33 289H2543.95L2539.11 278.153C2537.27 274.264 2536.14 271.961 2535.71 271.243C2535.39 271.224 2534.32 271.215 2532.51 271.215L2526.08 271.158V289H2518.49ZM2534.55 265.664C2537.49 265.664 2539.61 265.145 2540.89 264.106C2542.17 263.049 2542.82 261.359 2542.82 259.037C2542.82 256.998 2542.16 255.497 2540.86 254.534C2539.56 253.571 2537.57 253.09 2534.89 253.09H2526.08V265.636C2526.36 265.636 2527.77 265.645 2530.3 265.664C2532.83 265.664 2534.24 265.664 2534.55 265.664ZM2555.16 294.353L2572.78 246.831H2578.95L2561.2 294.353H2555.16ZM2592.77 282.854H2598.27C2603.01 282.854 2606.61 281.618 2609.08 279.145C2611.56 276.652 2612.79 273.027 2612.79 268.27C2612.79 263.172 2611.52 259.471 2608.97 257.168C2606.42 254.846 2602.58 253.685 2597.45 253.685H2592.77V282.854ZM2585.1 289V247.511H2597.11C2600.73 247.511 2603.98 247.926 2606.85 248.757C2609.72 249.588 2612.18 250.843 2614.24 252.523C2616.32 254.185 2617.9 256.337 2619 258.98C2620.11 261.605 2620.67 264.645 2620.67 268.1C2620.67 274.802 2618.65 279.966 2614.61 283.591C2610.57 287.197 2604.97 289 2597.81 289H2585.1ZM2621.91 289L2637.18 247.482H2645.53L2660.57 289H2652.7L2648.59 277.275H2634.06L2629.93 289H2621.91ZM2635.99 271.555H2646.64C2643.24 260.661 2641.49 255.035 2641.4 254.676L2635.99 271.555ZM2670.46 289V253.656H2658.36V247.511H2690.19V253.656H2678.16V289H2670.46ZM2694.67 289V247.511H2719.82L2719.51 253.6H2702.34V264.305H2718.66V270.394H2702.34V282.883H2720.13L2719.87 289H2694.67ZM2726.19 283.421V277.587L2746.13 268.836L2726.19 259.349V253.515L2753.58 267.222V270.733L2726.19 283.421Z" fill="black"/>
<path d="M2388.33 408.449L2360.97 395.733V392.222L2388.36 378.571V384.405L2368.39 393.836L2388.33 402.644V408.449ZM2404.07 414V378.656H2391.98V372.511H2423.81V378.656H2411.78V414H2404.07ZM2428.88 414V372.511H2436.56V414H2428.88ZM2453.75 414V378.656H2441.66V372.511H2473.49V378.656H2461.45V414H2453.75ZM2477.96 414V372.511H2485.64V407.883H2503L2502.77 414H2477.96ZM2508.32 414V372.511H2533.47L2533.16 378.6H2516V389.305H2532.31V395.394H2516V407.883H2533.78L2533.53 414H2508.32ZM2539.84 408.421V402.587L2559.78 393.836L2539.84 384.349V378.515L2567.23 392.222V395.733L2539.84 408.421ZM2588.1 414L2587.93 407.883L2601.04 393.043C2602.67 391.306 2603.85 389.711 2604.58 388.257C2605.34 386.784 2605.71 385.236 2605.71 383.612C2605.71 381.819 2605.13 380.393 2603.96 379.336C2602.79 378.26 2601.25 377.722 2599.34 377.722C2597.59 377.722 2595.85 378.052 2594.13 378.713C2592.43 379.355 2591.04 380.167 2589.94 381.148L2587.82 375.541C2590.65 373.049 2594.63 371.803 2599.77 371.803C2603.85 371.803 2607.12 372.832 2609.59 374.89C2612.09 376.929 2613.33 379.817 2613.33 383.556C2613.33 386.199 2612.62 388.719 2611.21 391.117C2609.81 393.515 2607.9 395.979 2605.46 398.509L2596.11 408.421H2612.85L2612.34 414H2588.1ZM2620.02 414V372.511H2627.69V407.883H2645.05L2644.83 414H2620.02ZM2650.57 414V372.511H2658.25V414H2650.57ZM2667.42 414V372.511H2675.58C2677.05 374.814 2680.05 379.459 2684.56 386.444C2689.07 393.43 2691.82 397.678 2692.8 399.188C2693.08 399.623 2693.56 400.359 2694.24 401.397C2694.94 402.417 2695.43 403.144 2695.72 403.578C2695.58 397.102 2695.52 393.742 2695.52 393.496V372.511H2702.51V414H2694.24L2675.52 384.83L2674.17 382.593C2674.32 387.577 2674.39 391.079 2674.39 393.1V414H2667.42ZM2711.43 414V372.511H2736.58L2736.27 378.6H2719.11V389.305H2735.42V395.394H2719.11V407.883H2736.89L2736.64 414H2711.43ZM2755.7 414.566C2750.7 414.566 2746.21 413.415 2742.25 411.111L2744.12 405.022C2745.89 406.004 2747.82 406.797 2749.89 407.401C2751.99 408.006 2754.03 408.308 2756.01 408.308C2758.45 408.308 2760.29 407.788 2761.53 406.75C2762.78 405.693 2763.4 404.182 2763.4 402.219C2763.4 399.613 2761.67 397.81 2758.19 396.81C2757.95 396.734 2757.26 396.536 2756.12 396.215C2754.99 395.875 2753.92 395.554 2752.92 395.252C2751.94 394.931 2751.23 394.686 2750.8 394.516C2745.23 392.552 2742.45 388.889 2742.45 383.527C2742.45 379.77 2743.78 376.872 2746.44 374.833C2749.12 372.794 2752.67 371.774 2757.09 371.774C2762.09 371.774 2766.4 372.803 2770.03 374.861L2767.71 380.469C2764.01 378.807 2760.57 377.977 2757.4 377.977C2755.11 377.977 2753.39 378.382 2752.22 379.194C2751.06 379.987 2750.45 381.318 2750.38 383.188C2750.38 385.491 2751.52 386.992 2753.8 387.69C2754.25 387.86 2755.37 388.229 2757.14 388.795C2758.92 389.361 2760.07 389.729 2760.6 389.899C2764.39 391.146 2767.1 392.694 2768.73 394.544C2770.37 396.394 2771.19 398.971 2771.19 402.275C2771.19 406.221 2769.79 409.261 2767 411.395C2764.2 413.509 2760.44 414.566 2755.7 414.566Z" fill="black"/>
<path d="M2222.22 496.148L2203.51 487.184V485.289L2222.26 475.66V478.746L2207.12 486.148L2222.22 493.062V496.148ZM2235.62 496.637C2237.77 496.637 2239.36 495.947 2240.41 494.566C2241.46 493.186 2241.99 491.214 2241.99 488.648C2241.99 485.758 2241.48 483.583 2240.46 482.125C2239.46 480.654 2237.83 479.918 2235.58 479.918C2234.58 479.918 2233.69 480.133 2232.93 480.562C2232.16 480.992 2231.54 481.591 2231.07 482.359C2230.6 483.128 2230.24 484.013 2230 485.016C2229.76 486.005 2229.64 487.092 2229.64 488.277C2229.64 489.944 2229.85 491.389 2230.25 492.613C2230.67 493.837 2231.33 494.814 2232.24 495.543C2233.15 496.272 2234.28 496.637 2235.62 496.637ZM2242.05 495.895C2241.34 496.975 2240.41 497.835 2239.23 498.473C2238.06 499.111 2236.75 499.43 2235.31 499.43C2232.48 499.43 2230.27 498.427 2228.67 496.422C2227.07 494.404 2226.27 491.663 2226.27 488.199C2226.27 484.892 2227.08 482.223 2228.71 480.191C2230.33 478.147 2232.52 477.125 2235.25 477.125C2236.67 477.125 2238 477.438 2239.25 478.062C2240.52 478.674 2241.46 479.501 2242.09 480.543L2242.03 478.688V469.254L2245.25 469.059V499H2242.48L2242.05 495.895ZM2263.28 481.539C2262.33 480.393 2261.02 479.82 2259.35 479.82C2257.68 479.82 2256.32 480.413 2255.27 481.598C2254.21 482.77 2253.6 484.378 2253.41 486.422H2264.72C2264.72 484.299 2264.24 482.672 2263.28 481.539ZM2260 499.449C2256.88 499.449 2254.43 498.46 2252.63 496.48C2250.85 494.501 2249.96 491.793 2249.96 488.355C2249.96 485.035 2250.82 482.346 2252.55 480.289C2254.29 478.219 2256.57 477.164 2259.39 477.125C2262.05 477.125 2264.15 478.036 2265.7 479.859C2267.26 481.669 2268.04 484.091 2268.04 487.125C2268.04 487.281 2268.04 487.568 2268.02 487.984C2268.02 488.401 2268.02 488.701 2268.02 488.883H2253.32C2253.36 491.318 2253.98 493.219 2255.19 494.586C2256.42 495.94 2258.06 496.617 2260.11 496.617C2262.38 496.617 2264.65 496.018 2266.93 494.82L2267.44 497.457C2265.26 498.785 2262.78 499.449 2260 499.449ZM2278.96 499.449C2277.5 499.449 2276.15 499.293 2274.92 498.98C2273.69 498.668 2272.7 498.264 2271.93 497.77L2272.34 495.016C2274.51 496.174 2276.65 496.754 2278.75 496.754C2281.92 496.754 2283.56 495.634 2283.65 493.395C2283.65 492.444 2283.31 491.695 2282.63 491.148C2281.96 490.602 2280.63 489.99 2278.65 489.312L2277.03 488.746C2275.15 488.121 2273.81 487.346 2273 486.422C2272.21 485.497 2271.81 484.345 2271.79 482.965C2271.79 481.285 2272.46 479.892 2273.8 478.785C2275.16 477.678 2277.01 477.125 2279.35 477.125C2281.77 477.125 2283.98 477.594 2285.97 478.531L2285.02 481.031C2283 480.198 2281.11 479.781 2279.35 479.781C2277.98 479.781 2276.91 480.055 2276.13 480.602C2275.36 481.135 2274.98 481.891 2274.98 482.867C2274.98 483.701 2275.26 484.339 2275.82 484.781C2276.38 485.224 2277.5 485.732 2279.18 486.305C2279.61 486.461 2280.15 486.643 2280.8 486.852C2282.96 487.555 2284.49 488.388 2285.39 489.352C2286.29 490.302 2286.73 491.591 2286.73 493.219C2286.71 495.198 2286 496.734 2284.61 497.828C2283.21 498.909 2281.33 499.449 2278.96 499.449ZM2300.27 499.449C2297.12 499.449 2294.65 498.427 2292.87 496.383C2291.1 494.339 2290.21 491.663 2290.21 488.355C2290.22 485.022 2291.13 482.32 2292.93 480.25C2294.74 478.167 2297.21 477.125 2300.35 477.125C2301.45 477.125 2302.52 477.262 2303.55 477.535C2304.59 477.809 2305.41 478.167 2306.01 478.609L2305.11 481.148C2303.59 480.328 2301.98 479.918 2300.29 479.918C2298.22 479.918 2296.58 480.673 2295.37 482.184C2294.17 483.694 2293.57 485.758 2293.57 488.375C2293.57 490.927 2294.16 492.952 2295.35 494.449C2296.55 495.934 2298.2 496.676 2300.31 496.676C2301.99 496.676 2303.71 496.22 2305.46 495.309L2305.88 497.906C2304.46 498.935 2302.59 499.449 2300.27 499.449ZM2319.72 477.379C2320.31 477.379 2320.84 477.418 2321.32 477.496L2321.21 480.504C2320.61 480.4 2320.09 480.348 2319.64 480.348C2317.82 480.348 2316.34 480.986 2315.19 482.262C2314.06 483.525 2313.49 485.094 2313.49 486.969V499H2310.23C2310.22 485.849 2310.21 478.707 2310.21 477.574H2312.93L2313.24 481.422C2313.98 480.211 2314.92 479.234 2316.07 478.492C2317.22 477.75 2318.43 477.379 2319.72 477.379ZM2328.53 477.574V499H2325.25V477.574H2328.53ZM2328.53 469.781V473.648H2325.25V469.781H2328.53ZM2334.68 508.297V477.574H2337.55L2337.87 480.484C2339.74 478.245 2341.99 477.125 2344.62 477.125C2346.58 477.125 2348.23 477.613 2349.59 478.59C2350.94 479.566 2351.94 480.888 2352.57 482.555C2353.23 484.221 2353.55 486.168 2353.55 488.395C2353.55 490.53 2353.2 492.431 2352.5 494.098C2351.79 495.751 2350.76 497.06 2349.39 498.023C2348.04 498.974 2346.45 499.449 2344.62 499.449C2343.24 499.449 2341.95 499.143 2340.74 498.531C2339.53 497.906 2338.56 497.086 2337.83 496.07C2337.91 497.477 2337.95 498.844 2337.95 500.172V508.082L2334.68 508.297ZM2344.18 496.695C2345.17 496.695 2346.05 496.474 2346.83 496.031C2347.61 495.576 2348.24 494.957 2348.73 494.176C2349.21 493.395 2349.57 492.509 2349.82 491.52C2350.07 490.517 2350.19 489.436 2350.19 488.277C2350.19 485.829 2349.68 483.824 2348.65 482.262C2347.62 480.686 2346.12 479.898 2344.14 479.898C2340 479.898 2337.93 482.574 2337.93 487.926C2337.93 490.829 2338.41 493.017 2339.37 494.488C2340.35 495.96 2341.95 496.695 2344.18 496.695ZM2365 499.391C2362.89 499.391 2361.39 498.876 2360.5 497.848C2359.62 496.819 2359.15 495.159 2359.1 492.867V479.996H2355.91L2356.05 477.848L2359.08 477.574L2360.19 472.672L2362.34 472.594V477.574H2368.3V479.996H2362.34V492.281C2362.34 493.909 2362.59 495.055 2363.08 495.719C2363.58 496.383 2364.42 496.715 2365.62 496.715C2366.05 496.715 2366.98 496.611 2368.41 496.402L2368.55 498.98C2367 499.254 2365.82 499.391 2365 499.391ZM2375.88 477.574V499H2372.59V477.574H2375.88ZM2375.88 469.781V473.648H2372.59V469.781H2375.88ZM2384.41 488.336C2384.41 490.875 2384.97 492.913 2386.09 494.449C2387.22 495.973 2388.87 496.734 2391.03 496.734C2393.17 496.734 2394.77 495.973 2395.86 494.449C2396.95 492.926 2397.5 490.875 2397.5 488.297C2397.5 485.68 2396.96 483.622 2395.88 482.125C2394.81 480.615 2393.17 479.859 2390.97 479.859C2388.84 479.859 2387.21 480.628 2386.09 482.164C2384.97 483.701 2384.41 485.758 2384.41 488.336ZM2400.88 488.277C2400.88 491.598 2399.99 494.293 2398.22 496.363C2396.45 498.421 2394 499.449 2390.88 499.449C2387.87 499.449 2385.47 498.408 2383.69 496.324C2381.92 494.241 2381.03 491.565 2381.03 488.297C2381.03 484.964 2381.92 482.268 2383.71 480.211C2385.49 478.154 2387.94 477.125 2391.05 477.125C2394.11 477.125 2396.51 478.16 2398.26 480.23C2400 482.288 2400.88 484.97 2400.88 488.277ZM2405.5 499V477.574H2408.24L2408.65 480.641C2409.49 479.586 2410.55 478.74 2411.81 478.102C2413.09 477.451 2414.46 477.125 2415.93 477.125C2418.41 477.125 2420.24 477.822 2421.42 479.215C2422.61 480.595 2423.2 482.724 2423.2 485.602V499H2419.94C2419.94 490.406 2419.93 485.803 2419.92 485.191C2419.87 483.368 2419.49 482.034 2418.8 481.188C2418.13 480.341 2416.99 479.918 2415.39 479.918C2413.71 479.918 2412.31 480.322 2411.19 481.129C2410.07 481.936 2409.34 482.984 2409 484.273C2408.87 485.146 2408.8 486.148 2408.8 487.281V499H2405.5ZM2428.08 492.926L2443.2 486.148L2428.12 478.609V475.562L2446.83 485.309V487.203L2428.08 496.031V492.926Z" fill="black"/>
<path d="M2209.11 588.391C2205.66 588.391 2202.57 587.596 2199.84 586.008L2201.12 581.809C2202.35 582.486 2203.68 583.033 2205.11 583.449C2206.55 583.866 2207.96 584.074 2209.33 584.074C2211.01 584.074 2212.28 583.716 2213.14 583C2214 582.271 2214.43 581.229 2214.43 579.875C2214.43 578.078 2213.23 576.835 2210.83 576.145C2210.66 576.092 2210.19 575.956 2209.41 575.734C2208.62 575.5 2207.89 575.279 2207.2 575.07C2206.52 574.849 2206.03 574.68 2205.73 574.562C2201.89 573.208 2199.97 570.682 2199.97 566.984C2199.97 564.393 2200.89 562.395 2202.73 560.988C2204.58 559.582 2207.02 558.879 2210.07 558.879C2213.52 558.879 2216.5 559.589 2219 561.008L2217.39 564.875C2214.84 563.729 2212.47 563.156 2210.29 563.156C2208.71 563.156 2207.52 563.436 2206.71 563.996C2205.92 564.543 2205.49 565.461 2205.44 566.75C2205.44 568.339 2206.23 569.374 2207.8 569.855C2208.12 569.973 2208.89 570.227 2210.11 570.617C2211.33 571.008 2212.13 571.262 2212.49 571.379C2215.11 572.238 2216.98 573.306 2218.1 574.582C2219.23 575.858 2219.8 577.635 2219.8 579.914C2219.8 582.635 2218.83 584.732 2216.91 586.203C2214.98 587.661 2212.38 588.391 2209.11 588.391ZM2223.84 588V558.625L2228.96 558.293V571.477L2228.84 575.812C2228.85 575.799 2228.98 575.669 2229.23 575.422C2229.49 575.174 2229.63 575.038 2229.66 575.012C2230.38 574.165 2231.15 573.293 2231.98 572.395C2232.83 571.496 2233.89 570.396 2235.17 569.094C2236.46 567.792 2237.3 566.939 2237.69 566.535H2243.78L2234.95 575.676L2244.35 588H2238.16L2231.09 578.254L2228.96 579.934V588H2223.84ZM2246.89 588V566.535H2252V588H2246.89ZM2246.89 563.41V559.035H2252.02V563.41H2246.89ZM2264.88 588.293C2263.4 588.293 2262.18 588.124 2261.2 587.785C2260.24 587.434 2259.48 586.88 2258.92 586.125C2258.36 585.37 2257.97 584.471 2257.75 583.43C2257.52 582.388 2257.41 581.092 2257.41 579.543V558.625L2262.53 558.293V579.445C2262.53 581.372 2262.76 582.681 2263.21 583.371C2263.67 584.048 2264.56 584.387 2265.87 584.387C2266.52 584.387 2267.35 584.315 2268.35 584.172L2268.49 587.824C2268.48 587.824 2268.31 587.857 2268 587.922C2267.7 587.987 2267.41 588.039 2267.12 588.078C2266.85 588.13 2266.5 588.176 2266.07 588.215C2265.64 588.267 2265.24 588.293 2264.88 588.293ZM2278.55 588.293C2277.08 588.293 2275.85 588.124 2274.88 587.785C2273.91 587.434 2273.15 586.88 2272.59 586.125C2272.03 585.37 2271.64 584.471 2271.42 583.43C2271.2 582.388 2271.09 581.092 2271.09 579.543V558.625L2276.2 558.293V579.445C2276.2 581.372 2276.43 582.681 2276.89 583.371C2277.34 584.048 2278.23 584.387 2279.54 584.387C2280.19 584.387 2281.02 584.315 2282.02 584.172L2282.16 587.824C2282.15 587.824 2281.98 587.857 2281.67 587.922C2281.37 587.987 2281.08 588.039 2280.79 588.078C2280.52 588.13 2280.17 588.176 2279.74 588.215C2279.31 588.267 2278.91 588.293 2278.55 588.293ZM2291.55 588.391C2288.39 588.391 2285.86 587.85 2283.96 586.77L2284.48 582.922C2285.34 583.391 2286.44 583.814 2287.77 584.191C2289.09 584.556 2290.3 584.738 2291.4 584.738C2292.53 584.738 2293.41 584.53 2294.04 584.113C2294.67 583.684 2295 583.059 2295.01 582.238C2295.01 581.496 2294.71 580.91 2294.11 580.48C2293.53 580.051 2292.4 579.517 2290.73 578.879C2290.16 578.671 2289.79 578.534 2289.62 578.469C2287.64 577.701 2286.22 576.848 2285.34 575.91C2284.47 574.96 2284.04 573.677 2284.04 572.062C2284.04 570.109 2284.74 568.612 2286.14 567.57C2287.56 566.529 2289.54 566.008 2292.06 566.008C2294.8 566.008 2297.2 566.522 2299.27 567.551L2298 571.086C2295.96 570.135 2294.01 569.66 2292.16 569.66C2291.13 569.66 2290.32 569.836 2289.74 570.188C2289.17 570.526 2288.88 571.047 2288.88 571.75C2288.88 572.414 2289.16 572.935 2289.72 573.312C2290.28 573.677 2291.37 574.159 2293 574.758C2293.05 574.771 2293.22 574.829 2293.51 574.934C2293.79 575.038 2294.02 575.122 2294.17 575.188C2296.14 575.904 2297.58 576.763 2298.51 577.766C2299.43 578.755 2299.89 580.051 2299.89 581.652C2299.88 583.801 2299.15 585.461 2297.71 586.633C2296.26 587.805 2294.21 588.391 2291.55 588.391ZM2311.89 588L2322.41 559.367H2328.18L2338.55 588H2333.12L2330.29 579.914H2320.27L2317.41 588H2311.89ZM2321.59 575.969H2328.94C2326.59 568.456 2325.39 564.576 2325.32 564.328L2321.59 575.969ZM2350.5 588.41C2347.22 588.41 2344.66 587.434 2342.82 585.48C2341 583.527 2340.09 580.734 2340.09 577.102C2340.09 573.586 2341.05 570.858 2342.96 568.918C2344.89 566.978 2347.42 566.008 2350.56 566.008C2353.07 566.008 2355.19 566.548 2356.93 567.629L2355.71 571.281C2353.94 570.357 2352.3 569.895 2350.77 569.895C2349.04 569.895 2347.67 570.513 2346.67 571.75C2345.68 572.987 2345.19 574.79 2345.19 577.16C2345.19 579.556 2345.68 581.379 2346.65 582.629C2347.64 583.879 2349.04 584.504 2350.83 584.504C2352.71 584.504 2354.51 583.951 2356.24 582.844L2356.73 586.73C2355.83 587.329 2354.9 587.759 2353.94 588.02C2352.97 588.28 2351.83 588.41 2350.5 588.41ZM2374.88 596.926V587.844C2374.88 586.945 2374.92 586.021 2375.01 585.07C2373.66 587.31 2371.61 588.43 2368.88 588.43C2366.11 588.43 2363.87 587.388 2362.18 585.305C2360.49 583.221 2359.64 580.507 2359.64 577.16C2359.64 573.84 2360.44 571.151 2362.04 569.094C2363.64 567.036 2365.88 566.008 2368.76 566.008C2371.59 566.008 2373.7 567.095 2375.11 569.27L2375.52 566.535H2380.01V596.672L2374.88 596.926ZM2369.88 584.543C2371.54 584.543 2372.82 583.983 2373.7 582.863C2374.59 581.743 2375.04 579.973 2375.07 577.551C2375.07 574.895 2374.63 572.961 2373.74 571.75C2372.87 570.526 2371.56 569.914 2369.82 569.914C2368.24 569.914 2367 570.526 2366.09 571.75C2365.19 572.974 2364.74 574.797 2364.74 577.219C2364.74 579.615 2365.19 581.438 2366.11 582.688C2367.02 583.924 2368.27 584.543 2369.88 584.543ZM2400.73 586.32C2399.03 587.714 2396.78 588.41 2394 588.41C2391.21 588.41 2388.96 587.714 2387.26 586.32C2385.57 584.927 2384.72 582.883 2384.72 580.188V566.535H2389.86V579.992C2389.86 581.594 2390.19 582.753 2390.85 583.469C2391.53 584.185 2392.6 584.543 2394.05 584.543C2395.49 584.543 2396.53 584.191 2397.18 583.488C2397.84 582.772 2398.18 581.607 2398.18 579.992V566.535H2403.29V580.188C2403.29 582.87 2402.44 584.914 2400.73 586.32ZM2408.1 588V566.535H2413.21V588H2408.1ZM2408.1 563.41V559.035H2413.23V563.41H2408.1ZM2418.59 588V566.535H2422.88L2423.55 569.816C2424.95 567.564 2426.99 566.438 2429.66 566.438C2430.22 566.438 2430.68 566.464 2431.03 566.516L2430.95 570.793C2430.43 570.715 2429.89 570.676 2429.33 570.676C2427.44 570.676 2426.03 571.177 2425.09 572.18C2424.17 573.182 2423.7 574.576 2423.7 576.359V588H2418.59ZM2443.88 588.41C2440.43 588.41 2437.74 587.421 2435.81 585.441C2433.9 583.449 2432.94 580.702 2432.94 577.199C2432.94 573.788 2433.85 571.073 2435.66 569.055C2437.47 567.036 2439.93 566.021 2443.06 566.008C2446.01 566.008 2448.31 566.932 2449.93 568.781C2451.57 570.63 2452.39 573.085 2452.39 576.145C2452.39 576.366 2452.39 576.724 2452.38 577.219C2452.38 577.714 2452.38 578.078 2452.38 578.312H2438.1C2438.15 580.318 2438.7 581.874 2439.74 582.98C2440.79 584.074 2442.24 584.621 2444.07 584.621C2446.42 584.621 2448.67 584.009 2450.83 582.785L2451.55 586.418C2449.41 587.746 2446.85 588.41 2443.88 588.41ZM2438.2 575.09H2447.57C2447.57 573.345 2447.17 572.004 2446.38 571.066C2445.58 570.129 2444.48 569.66 2443.08 569.66C2441.76 569.66 2440.65 570.116 2439.74 571.027C2438.84 571.939 2438.33 573.293 2438.2 575.09ZM2464.56 588.41C2461.76 588.41 2459.56 587.382 2457.96 585.324C2456.36 583.267 2455.56 580.52 2455.56 577.082C2455.56 573.749 2456.35 571.073 2457.94 569.055C2459.54 567.023 2461.74 566.008 2464.54 566.008C2467.59 566.008 2469.74 567.089 2471.01 569.25C2470.88 567.974 2470.81 566.743 2470.81 565.559V558.625L2475.93 558.293V588H2471.5L2470.93 585.07C2470.71 585.422 2470.5 585.728 2470.3 585.988C2470.12 586.236 2469.85 586.529 2469.48 586.867C2469.12 587.193 2468.72 587.46 2468.29 587.668C2467.88 587.863 2467.34 588.033 2466.69 588.176C2466.05 588.332 2465.34 588.41 2464.56 588.41ZM2465.77 584.523C2469.21 584.523 2470.96 582.186 2471.01 577.512C2471.01 574.868 2470.57 572.941 2469.68 571.73C2468.79 570.52 2467.47 569.914 2465.71 569.914C2464.18 569.914 2462.95 570.533 2462.02 571.77C2461.11 572.993 2460.66 574.803 2460.66 577.199C2460.66 579.582 2461.11 581.398 2462.02 582.648C2462.95 583.898 2464.2 584.523 2465.77 584.523ZM2480.54 588.117V582.941H2485.71V588.117H2480.54ZM2480.54 571.574V566.398H2485.71V571.574H2480.54ZM2233.8 638.293C2233.8 640.09 2233.22 641.639 2232.06 642.941C2230.9 644.243 2229.54 644.895 2227.96 644.895C2226.36 644.895 2225 644.257 2223.88 642.98C2222.76 641.704 2222.2 640.181 2222.2 638.41C2222.2 636.626 2222.79 635.077 2223.96 633.762C2225.13 632.447 2226.49 631.789 2228.04 631.789C2229.61 631.789 2230.97 632.434 2232.1 633.723C2233.23 634.999 2233.8 636.522 2233.8 638.293ZM2278.72 650.148L2260.01 641.184V639.289L2278.76 629.66V632.746L2263.62 640.148L2278.72 647.062V650.148ZM2287.28 653H2283.82V623.781H2293.23C2294.67 623.781 2295.96 623.931 2297.12 624.23C2298.28 624.53 2299.31 624.986 2300.21 625.598C2301.11 626.21 2301.8 627.03 2302.3 628.059C2302.79 629.087 2303.04 630.285 2303.04 631.652C2303.04 632.785 2302.93 633.801 2302.73 634.699C2302.52 635.585 2302.16 636.418 2301.65 637.199C2301.14 637.98 2300.48 638.632 2299.66 639.152C2298.84 639.66 2297.79 640.064 2296.5 640.363C2295.22 640.65 2293.74 640.793 2292.04 640.793C2290.7 640.793 2289.11 640.708 2287.28 640.539V653ZM2292.38 637.805C2293.65 637.805 2294.74 637.681 2295.66 637.434C2296.57 637.186 2297.26 636.88 2297.75 636.516C2298.24 636.151 2298.62 635.676 2298.9 635.09C2299.18 634.504 2299.36 633.97 2299.43 633.488C2299.49 632.993 2299.52 632.401 2299.52 631.711C2299.52 630.057 2298.96 628.84 2297.84 628.059C2296.74 627.277 2295.23 626.887 2293.31 626.887H2287.28V637.766C2289.79 637.792 2291.49 637.805 2292.38 637.805ZM2309.41 638.566C2309.41 642.277 2310.26 645.194 2311.96 647.316C2313.67 649.426 2316.19 650.48 2319.52 650.48C2322.86 650.48 2325.36 649.426 2327.04 647.316C2328.74 645.207 2329.58 642.29 2329.58 638.566C2329.58 634.764 2328.73 631.815 2327.02 629.719C2325.33 627.622 2322.84 626.574 2319.54 626.574C2316.25 626.574 2313.74 627.622 2312 629.719C2310.27 631.815 2309.41 634.764 2309.41 638.566ZM2333.2 638.566C2333.2 640.767 2332.89 642.779 2332.28 644.602C2331.68 646.424 2330.81 647.993 2329.66 649.309C2328.53 650.611 2327.1 651.626 2325.36 652.355C2323.63 653.072 2321.68 653.43 2319.52 653.43C2316.61 653.43 2314.11 652.811 2312.02 651.574C2309.95 650.324 2308.4 648.592 2307.36 646.379C2306.33 644.152 2305.81 641.542 2305.81 638.547C2305.81 633.924 2307.02 630.279 2309.43 627.609C2311.83 624.94 2315.21 623.605 2319.54 623.605C2323.81 623.605 2327.15 624.953 2329.56 627.648C2331.98 630.331 2333.2 633.97 2333.2 638.566ZM2342.32 653H2338.94V624.113H2342.32V653ZM2372.14 653H2368.31L2353.31 630.266L2352.34 628.918C2352.44 631.652 2352.49 634.094 2352.49 636.242V653H2349.33V624.113H2353.1L2368.14 646.848L2369.13 648.195C2369.04 644.042 2369 641.639 2369 640.988V624.113H2372.14V653ZM2387.96 653H2384.56V627.102H2375.68V624.113H2396.85V627.102H2387.96V653ZM2399.88 648.234C2402.88 649.719 2406.11 650.461 2409.54 650.461C2413.77 650.461 2415.89 648.534 2415.89 644.68C2415.89 643.43 2415.55 642.421 2414.88 641.652C2414.21 640.871 2412.99 640.259 2411.22 639.816L2405.48 638.371C2401.09 637.264 2398.9 634.921 2398.9 631.34C2398.9 628.592 2399.84 626.555 2401.73 625.227C2403.62 623.885 2406.23 623.215 2409.56 623.215C2411.31 623.215 2412.94 623.404 2414.46 623.781C2415.99 624.159 2417.26 624.667 2418.29 625.305L2417.32 628.059C2416.44 627.577 2415.29 627.147 2413.84 626.77C2412.41 626.392 2410.96 626.203 2409.48 626.203C2404.77 626.203 2402.41 627.837 2402.41 631.105C2402.41 632.212 2402.77 633.104 2403.49 633.781C2404.22 634.445 2405.3 634.953 2406.75 635.305L2412.24 636.633C2414.58 637.193 2416.36 638.091 2417.57 639.328C2418.78 640.552 2419.39 642.297 2419.39 644.562C2419.39 647.505 2418.48 649.725 2416.67 651.223C2414.88 652.707 2412.43 653.449 2409.33 653.449C2407.01 653.449 2404.95 653.215 2403.14 652.746C2401.34 652.264 2399.91 651.698 2398.86 651.047L2399.88 648.234ZM2423.25 646.926L2438.37 640.148L2423.29 632.609V629.562L2442 639.309V641.203L2423.25 650.031V646.926Z" fill="black"/>
</g>
<defs>
<filter id="filter0_d_3673_2" x="-14" y="-8" width="3061" height="1222" filterUnits="userSpaceOnUse" color-interpolation-filters="sRGB">
<feFlood flood-opacity="0" result="BackgroundImageFix"/>
<feColorMatrix in="SourceAlpha" type="matrix" values="0 0 0 0 0 0 0 0 0 0 0 0 0 0 0 0 0 0 127 0" result="hardAlpha"/>
<feOffset dy="6"/>
<feGaussianBlur stdDeviation="7"/>
<feComposite in2="hardAlpha" operator="out"/>
<feColorMatrix type="matrix" values="0 0 0 0 0 0 0 0 0 0 0 0 0 0 0 0 0 0 0.7 0"/>
<feBlend mode="normal" in2="BackgroundImageFix" result="effect1_dropShadow_3673_2"/>
<feBlend mode="normal" in="SourceGraphic" in2="effect1_dropShadow_3673_2" result="shape"/>
</filter>
</defs>
</svg>
