<svg width="520" height="520" viewBox="0 0 520 520" fill="none" xmlns="http://www.w3.org/2000/svg">
<path d="M232.684 146.705C238.371 136.63 209.235 133.136 228.865 143.146C230.685 143.747 230.279 147.404 232.684 146.705ZM73.8075 61.1162C61.425 44.9474 97.0775 63.8299 84.5162 46.8974C73.9212 38.4637 63.7487 56.4037 73.8075 61.1162ZM99.7425 81.4287C117.325 79.0887 95.2737 73.8562 96.2162 81.2174L99.7425 81.4287ZM85.8487 78.0974C89.6187 72.9787 79.235 80.6974 85.8487 78.0974ZM113.88 108.956C124.8 109.216 109.184 94.2987 122.184 101.042C120.055 94.0712 107.039 92.7712 100.652 89.9924C97.0775 96.3624 107.965 109.037 113.847 108.956H113.88ZM79.885 107.559C89.2287 100.506 112.125 111.735 97.435 100.555C96.0212 99.3037 65.2275 109.037 79.885 107.559ZM70.2975 125.889C86.6612 120.331 109.021 114.091 116.74 128.635C108.875 119.177 113.571 109.866 120.997 123.695C131.479 137.686 136.727 117.341 129.886 112.629C137.67 122.297 146.51 126.847 135.102 113.23C147.485 98.3287 110.272 115.196 101.806 115.017C97.7437 116.837 59.735 124.702 70.2975 125.889ZM100.75 176.816C104.747 171.876 95.2737 175.5 100.75 176.816ZM91.2112 202.345C90.2362 196.462 88.3675 205.465 91.2112 202.345ZM83.135 198.25C92.2675 197.649 97.4675 188.159 81.3637 188.711C56.3875 186.127 103.382 197.242 78.1625 194.074C74.7662 196.3 82.9562 198.884 83.135 198.282V198.25ZM473.135 445.981C484.445 445.981 507.406 442.471 482.788 442.471C478.936 443.089 460.281 442.959 473.135 445.981ZM418.925 414.147C420.144 405.86 413.449 414.895 418.925 414.147ZM461.419 443.186C461.663 435.971 455.244 446.436 461.419 443.186ZM43.0625 181.431C51.1712 175.24 33.4912 179.075 43.0625 181.431ZM73.9212 203.369C78.8937 198.087 63.1475 201.224 73.9212 203.369ZM63.4725 200.444C77.6262 191.766 48.425 192.936 63.4725 200.444ZM168.155 134.55C172.884 122.119 186.55 129.577 170.349 132.047C170.69 133.364 169.861 138.466 168.155 134.55ZM155.155 134.631C177.872 143.406 154.034 109.98 155.155 134.631ZM109.46 141.667C116.967 132.649 152.002 135.915 126.36 140.79C119.502 135.606 114.221 143.829 109.46 141.667ZM106.291 143.78C110.792 138.499 107.591 148.444 106.291 143.78ZM93.9575 148.752C94.6075 140.4 114.627 153.172 97.2725 151.759L93.9575 148.752ZM84.9225 148.59C92.0237 143.309 88.6925 151.547 84.9225 148.59ZM83.9637 157.414C88.9037 139.262 110.37 172.331 92.04 159.802C90.0737 158.259 87.5712 157.332 84.8412 157.332C84.5325 157.332 84.2237 157.349 83.915 157.365H83.9475L83.9637 157.414ZM33.3125 183.202C31.4275 172.331 31.6875 153.27 49.8062 159.721C25.6262 164.515 66.5437 189.767 61.3762 169.829C71.5325 170.316 81.2825 163.816 75.92 173.68C95.9562 171.454 109.834 154.099 129.204 156.52C146.786 155.057 163.036 151.661 178.49 146.526L177.011 146.949C190.369 145.974 203.206 131.592 195.894 123.094C192.351 122.882 188.207 122.752 184.031 122.752C167.895 122.752 152.181 124.605 137.101 128.099L138.499 127.822C116.204 132.454 95.94 141.261 73.4175 145.064C51.48 148.005 77.8212 153.189 71.5487 154.326C60.0925 158.307 85.1987 160.989 70.07 165.165C60.7262 163.377 50.9762 160.176 54.99 150.345C33.9787 153.042 15.4862 161.785 32.11 183.154H33.3287L33.3125 183.202ZM68.575 206.797C69.6962 199.079 60.255 208.325 68.575 206.797ZM437.791 445.445C440.473 437.482 431.015 446.452 437.791 445.445ZM397.703 424.661C404.398 418.502 389.171 422.76 397.703 424.661ZM66.0075 219.797C76.5212 215.67 46.9137 211.266 63.895 218.985L66.0075 219.797ZM41.2425 204.994C40.5275 198.494 37.3912 205.806 41.2425 204.994ZM36.7737 208.374C36.3675 202.897 33.8487 210.437 36.7737 208.374ZM66.95 227.955C65.5362 216.076 49.8875 226.167 66.95 227.955ZM125.434 271.164C127.904 268.889 119.551 269.474 125.434 271.164ZM72.5237 237.25C70.6225 239.72 70.0862 235.284 72.5237 237.25ZM64.1225 233.139C64.3012 228.069 50.6512 228.589 64.1225 233.139ZM49.4162 229.434C46.6212 213.704 38.7562 227.045 49.4162 229.434ZM111.085 272.252C111.264 263.981 104.65 271.944 111.085 272.252ZM389.756 445.835C400.156 443.722 423.833 451.116 427.651 443.072C415.058 442.764 383.988 434.184 382.525 445.104L385.287 445.575L389.756 445.835ZM103.642 270.384C103.496 267.686 101.172 271.391 103.642 270.384ZM80.1612 259.009C88.27 256.262 72.7025 257.189 80.1612 259.009ZM267.589 385.531C267.442 377.39 259.561 387.562 267.589 385.531ZM85.1662 270.562C97.76 265.687 71.6787 267.117 85.1662 270.562ZM329.046 427.326C333.434 424.076 323.57 426.92 329.046 427.326ZM283.319 398.499C282.506 395.346 280.134 399.1 283.319 398.499ZM277.761 394.452C275.568 388.814 269.068 394.322 277.761 394.452ZM162.402 321.685C162.402 313.462 147.68 318.354 162.402 321.685ZM149.077 318.597C148.817 317.947 143.682 314.064 149.077 318.597ZM61.2787 264.469C63.1475 256.685 43.9562 221.682 52.2275 246.919C55.185 252.2 54.86 262.226 61.2787 264.469ZM109.119 302.234C119.616 304.59 151.076 328.104 132.519 303.859C123.012 301.064 128.716 277.81 119.015 281.921C125.515 292.792 124.377 297.407 110.695 290.566C93.535 282.181 101.075 294.71 104.406 298.155C99.8562 299.211 110.484 302.136 109.135 302.217L109.119 302.234ZM371.979 471.445C379.811 466.212 362.456 469.755 371.979 471.445ZM343.948 452.806C355.599 443.024 331.614 457.129 343.948 452.806ZM349.424 455.455C363.74 445.104 340.73 453.472 346.418 457.405L349.424 455.455ZM189.134 360.327C186.192 354.299 184.584 361.286 189.134 360.327ZM179.79 354.916C179.384 350.041 173.875 355.322 179.79 354.916ZM331.484 450.564C342.68 443.349 328.933 444.47 329.453 451.214L331.484 450.564ZM101.92 305.792C105.235 300.885 93.3887 305.159 101.92 305.792ZM335.156 455.292C346.726 445.38 327.844 453.212 335.156 455.292ZM317.574 448.386C340.616 433.485 308.116 441.886 317.574 448.386ZM73.2875 295.392C62.6112 280.166 66.6412 273.292 56.3387 260.877C54.3887 251.339 38.675 229.742 48.2137 252.639C56.94 266.012 59.54 286.731 73.2875 295.409V295.392ZM321.49 452.611C334.019 439.335 309.351 453.407 321.49 452.611ZM321.474 456.869C321.539 453.83 316.599 458.201 321.474 456.869ZM297.911 440.716C309.238 431.21 286.943 444.941 297.911 440.716ZM194.415 376.756C201.76 383.256 228.166 381.55 203.352 377.569C199.664 372.092 179.985 373.425 194.415 376.756ZM119.064 331.337C114.156 323.18 101.514 323.944 119.064 331.337ZM105.836 322.644C103.805 314.665 91.6175 314.73 105.836 322.644ZM302.64 446.257C309.238 439.855 302.9 456.479 313.609 444.697C313.706 436.264 313.268 431.291 301.308 441.529C298.025 443.349 296.563 451.132 302.64 446.257ZM290.241 441.041C290.648 435.354 286.325 445.916 290.241 441.041ZM169.617 367.965C198.25 377.179 155.577 356.671 169.617 367.965ZM146.055 354.429C152.961 359.564 172.055 369.021 155.886 356.379C161.346 350.041 145.454 346.677 150.735 342.452C137.329 334.246 140.172 334.977 149.565 335.221C133.445 328.039 151.872 328.559 150.979 324.87C144.787 323.651 120.12 313.901 134.647 325.682C119.909 318.175 131.137 328.477 126.685 327.389C111.605 323.294 140.091 338.861 124.296 335.01C132.925 341.851 147.566 352.56 127.952 342.257C125.352 345.979 141.96 351.601 146.071 354.445L146.055 354.429ZM190.547 383.955C203.044 387.205 202.979 382.021 191.669 380.51C185.575 374.822 166.367 368.826 183.544 379.795C184.697 382.671 188.321 382.622 190.531 383.971L190.547 383.955ZM168.009 372.58C168.334 373.994 165.409 370.321 168.009 372.58ZM178.961 157.072C180.862 154.732 179.367 159.9 178.961 157.072ZM172.412 196.121C168.025 188.402 177.937 162.142 179.026 178.457C174.411 191.149 177.71 198.25 180.911 181.22C186.859 167.814 179.627 207.675 172.38 196.137L172.412 196.121ZM166.042 206.472C169.699 214.679 164.97 199.972 166.042 206.472ZM169.959 216.824C175.89 225.144 163.572 201.061 169.959 216.824ZM172.624 222.722C173.501 227.63 172.575 219.326 172.624 222.722ZM126.669 197.145C134.387 206.96 130.845 188.337 126.669 197.145ZM110.386 187.444C113.002 186.322 111.767 190.937 110.386 187.444ZM179.985 241.784C182.357 222.609 182.081 253.012 179.985 241.784ZM117.552 205.156C120.981 200.119 108.42 182.406 119.356 198.802C124.069 202.556 133.006 205.091 125.109 206.667C137.491 217.62 122.07 209.625 117.552 205.172V205.156ZM183.56 247.049C184.454 230.197 188.597 236.99 183.592 249.437L183.56 247.049ZM111.28 211.006C119.714 209.219 146.169 225.81 121.842 215.751C119.161 212.745 113.392 214.142 111.28 211.006ZM188.272 264.241C190.905 254.865 188.467 270.432 188.272 264.241ZM154.115 242.336C157.105 245.05 152.782 225.891 154.115 242.336ZM109.119 218.465C94.965 198.916 150.28 238.225 118.202 223.421C114.855 222.544 110.809 222.202 109.119 218.465ZM187.216 271.407C188.305 266.939 187.362 276.64 187.216 271.407ZM191.279 275.437C193.294 282.539 192.254 265.021 191.279 275.437ZM167.927 261.625C158.389 255.905 165.425 221.341 168.675 244.969C177.954 241.962 168.171 257.156 175.077 257.026C174.005 266.63 170.901 270.091 167.976 261.609L167.927 261.625ZM104.78 224.916C82.7287 205.302 132.502 235.186 108.371 228.572L104.78 224.916ZM118.934 238.452C127.059 243.685 112.271 225.924 118.934 238.452ZM111.816 236.161C116.22 231.79 114.156 240.467 111.816 236.161ZM100.246 236.47C92.6575 228.962 87.165 221.991 100.587 231.806C105.771 232.001 89.0987 216.011 101.806 226.736C115.212 229.174 108.452 248.706 100.246 236.486V236.47ZM122.265 253.516C129.691 266.386 126.652 244.27 122.265 253.516ZM113.116 250.38C117.78 258.765 113.929 238.127 113.116 250.38ZM133.494 264.404C129.236 257.124 126.717 248.365 126.717 239.021C126.717 239.005 126.717 238.989 126.717 238.972C128.261 246.642 143.049 272.009 133.965 249.486C123.939 230.604 145.941 255.612 148.216 260.325C149.224 264.989 142.025 259.041 146.916 270.026C137.979 257.497 141.635 276.949 133.494 264.404ZM199.404 308.376C192.254 292.337 204.474 299.601 200.98 311.009L199.404 308.376ZM161.184 296.107C167.749 301.389 158.031 290.469 161.184 296.107ZM205.692 327.08C208.91 335.692 208.422 316.842 205.692 327.08ZM142.675 292.922C147.127 291.704 144.869 300.511 142.675 292.922ZM221.861 347.587C231.4 351.731 214.305 332.962 221.861 347.587ZM228.41 356.379C230.587 363.691 228.215 346.872 228.41 356.379ZM303.664 413.562C307.418 413.335 303.794 416.406 303.664 413.562ZM237.9 371.784C231.888 365.495 230.328 353.714 236.828 363.967C240.159 365.3 247.488 383.191 237.9 371.784ZM258.099 428.805C273.796 419.429 268.612 450.775 284.716 431.437C300.593 419.867 271.017 445.786 290.599 433.534C304.736 424.044 325.65 438.002 338.845 442.569C348.351 442.097 357.581 450.791 367.331 445.51C386.068 440.44 330.655 438.002 345.199 429.065C342.956 429.569 340.373 429.861 337.724 429.861C324.643 429.861 313.202 422.792 307.011 412.279L306.914 412.116C285.805 408.622 267.881 397.166 255.954 381.014L255.807 380.802C251.907 374.4 261.495 381.696 252.444 371.264C242.596 361.351 234.195 349.96 227.63 337.48L227.256 336.716C217.977 331.76 216.905 317.167 215.946 336.229C216.027 324.187 204.717 316.079 201.971 319.459C201.939 307.856 214.061 313.674 205.546 305.094C203.726 293.069 197.714 280.524 195.894 266.971C193.099 260.439 195.487 246.447 186.29 261.251C182.942 276.884 185.169 242.027 190.385 253.532C197.226 241.751 187.947 243.181 187.541 244.806C192.01 234.894 190.385 220.837 186.387 226.2C188.76 215.702 190.141 187.574 182.829 192.579C187.249 181.61 191.23 142.366 171.99 157.332C161.915 157.739 152.457 159.916 143.78 163.54L144.316 163.345C164.336 174.379 142.285 167.326 134.16 165.571C133.104 175.76 125.027 171.356 114.952 171.454C131.056 173.436 107.12 187.899 97.8737 182.292C85.8975 188.012 108.225 202.329 98.1175 206.765C99.3362 213.427 79.7387 204.327 81.2662 219.765C69.6312 214.874 79.69 238.046 85.5075 230.197C105.3 235.56 99.4337 247.78 99.9212 259.382C96.72 266.142 83.9962 243.49 97.0775 244.53C86.775 227.744 85.6862 238.436 77.09 246.252C75.0587 246.821 98.995 257.367 83.9962 262.551C97.1912 264.582 97.565 276.152 100.246 283.465C108.16 291.736 106.535 274.332 116.057 284.277C110.045 275.421 84.24 259.334 105.007 264.501C104.91 255.564 101.254 248.397 107.624 248.576C113.912 237.169 101.026 276.737 115.245 262.226C119.161 260.504 120.12 250.786 127.221 263.136C137.475 273.244 130.91 280.556 116.431 271.326C119.015 280.117 135.801 283.254 132.649 297.017C135.996 309.107 140.676 304.655 144.755 303.956C147.956 315.689 149.776 307.06 149.939 301.454C164.564 304.606 161.151 313.235 165.734 319.329C175.825 323.879 151.271 288.421 168.61 308.652C186.842 325.097 175.451 332.004 159.071 329.371C169.422 328.542 172.786 343.379 185.737 342.859C197.551 348.481 205.53 370.077 185.185 361.075C178.116 354.721 153.107 346.856 173.55 358.962C194.382 367.494 211.494 375.846 227.987 385.141L225.55 383.89C238.55 393.185 244.189 403.829 249.112 405.941C238.192 411.157 216.157 401.765 232.521 398.872C222.3 397.02 210.827 391.869 220.594 404.56C228.914 411.531 250.039 410.767 253.841 411.564C250.608 418.632 245.115 419.201 253.971 419.754C244.107 425.035 257.14 425.847 258.05 428.854L258.099 428.805ZM199.696 392.909C216.482 395.054 179.692 381.469 196.024 391.69L199.696 392.909ZM244.481 423.312C259.057 417.527 230.262 420.469 244.481 423.312ZM158.372 369.752C167.716 368.745 143.341 363.431 158.372 369.752ZM209.251 402.09C210.47 396.906 198.526 400.53 209.251 402.09ZM283.66 450.271C283.465 446.274 279.939 451.799 283.66 450.271ZM215.312 408.346C214.207 408.915 213.005 405.714 215.312 408.346ZM105.511 338.585C103.951 332.556 91.8287 327.746 105.511 338.585ZM147.339 365.641C159.932 364.894 130.114 360.1 147.339 365.641ZM182.634 391.105C181.334 387.221 175.809 390.942 182.634 391.105ZM276.656 449.101C277.225 441.724 269.49 454.577 276.656 449.101ZM145.275 368.176C144.43 364.114 139.88 368.55 145.275 368.176ZM239.574 428.285C261.511 428.48 219.781 425.295 239.574 428.285ZM199.501 405.129C222.658 411.694 180.05 390.504 193.797 402.74L196.836 404.121L199.469 405.129H199.501ZM219.489 421.037C223.405 414.342 202.946 417.186 219.489 421.037ZM153.692 380.867C163.15 388.131 191.864 381.794 168.187 376.545C157.43 370.792 133.12 366.876 149.662 379.99L153.692 380.867ZM206.164 416.861C214.89 413.579 192.026 413.546 206.164 416.861ZM186.55 404.82C192.644 400.562 173.94 401.57 186.55 404.82ZM163.199 391.219C162.386 387.822 150.686 387.465 163.199 391.219ZM242.824 453.245C250.884 458.315 289.933 464.409 265.46 455.341C261.398 456.186 220.171 443.69 242.791 453.245H242.824ZM192.66 421.931C192.384 418.567 189.085 423.459 192.66 421.931ZM182.634 416.926C192.53 410.524 169.845 416.845 182.634 416.926ZM226.639 447.655C230.522 441.935 214.256 445.477 226.639 447.655ZM203.742 434.866C210.08 428.772 193.911 431.047 203.742 434.866ZM190.352 429.276C189.264 423.897 185.477 432.282 190.352 429.276ZM179.66 425.376C184.031 423.426 173.371 422.939 179.66 425.376ZM99.3687 354.364C102.96 360.799 100.035 351.406 99.3687 354.364ZM156.097 416.65C175.792 423.946 156.016 402.805 146.965 404.024C142.984 397.101 131.722 392.714 139.652 388.992C125.352 393.949 124.686 370.11 117.926 373.506C102.814 368.729 112.044 351.78 94.0387 341.429C92.3975 330.46 76.1312 320.954 70.9312 304.427C68.64 295.977 52.5525 271.667 62.4487 294.271C72.9787 316.794 84.8412 336.18 98.54 354.071L97.9875 353.307C106.844 372.466 119.86 388.375 135.947 400.4L136.272 400.627C142.155 406.282 147.81 414.911 156.114 416.666L156.097 416.65ZM194.756 443.982C212.794 453.261 233.724 460.492 255.742 464.587L257.173 464.815C278.346 469.674 302.656 472.452 327.633 472.452C340.6 472.452 353.405 471.705 365.983 470.242L364.455 470.389C348.416 463.141 331.809 473.232 315.819 465.205C310.131 465.855 303.534 466.212 296.855 466.212C282.571 466.212 268.678 464.539 255.369 461.37L256.587 461.614C230.084 451.961 208.049 442.016 186.842 430.706L189.751 432.12C163.816 422.662 203.157 444.259 210.161 446.03C226.362 455.227 192.351 441.301 187.541 437.482C173.972 429.861 172.234 431.454 186.209 439.189C189.036 440.814 191.815 442.552 194.74 443.966L194.756 443.982ZM161.964 429.764C142.009 416.032 124.914 400.059 110.435 381.907L110.061 381.436C82.8262 348.01 60.645 309.107 45.5325 266.857L44.6712 264.127C35.62 236.616 32.4837 207.106 20.8325 180.667C18.4762 176.345 17.095 171.194 17.095 165.717C17.095 149.922 28.6487 136.809 43.7612 134.387L43.94 134.371C53.2837 132.6 69.7775 123.776 49.8875 130.081C32.0612 143.162 30.3387 118.202 48.6037 116.642C56.55 116.561 62.9687 110.11 62.9687 102.147C62.9687 99.7587 62.3837 97.4999 61.36 95.5012L61.3925 95.5824C47.9862 86.8562 93.8762 77.2524 70.8012 64.2362C46.7837 38.2687 104.455 33.2962 90.2362 62.7412C86.84 85.3774 130.52 58.5812 120.396 84.7274C130.699 97.3049 158.974 87.5712 158.275 105.219C173.306 106.226 178.441 118.869 192.53 119.844C207.155 126.441 233.594 131.625 238.55 148.07C224.071 159.559 190.547 124.41 188.939 156.146C189.312 206.115 196.739 254.199 210.259 299.666L209.332 296.01C220.22 323.05 235.657 346.141 254.897 365.414C272.431 384.946 293.508 400.871 317.2 412.279L318.403 412.799C337.253 421.704 359.157 428.724 382.07 432.754L383.646 432.981C392.746 426.01 408.834 400.14 423.004 411.044C423.67 423.312 394.81 436.686 421.639 435.337C437.401 430.592 448.321 447.525 461.305 432.25C473.249 446.404 510.981 423.199 502.466 452.156C490.978 459.55 474.208 455.081 462.686 465.27C443.706 455.78 428.578 473.752 407.55 471.477C386.896 475.231 363.122 477.376 338.845 477.376C338.13 477.376 337.399 477.376 336.684 477.376H336.798C295.392 476.645 255.775 470.161 218.335 458.705L221.374 459.501C198.721 451.847 179.075 441.772 161.249 429.276L161.996 429.78L161.964 429.764Z" fill="white"/>
</svg>
